G04 Layer_Color=20142*
%FSLAX25Y25*%
%MOIN*%
G70*
G01*
G75*
%ADD44R,0.03950X0.04737*%
%ADD45R,0.06902X0.05918*%
%ADD46R,0.04934X0.04737*%
%ADD47R,0.08674X0.09461*%
%ADD48R,0.03556X0.05524*%
%ADD49R,0.02375X0.06115*%
%ADD50R,0.06706X0.08280*%
%ADD51R,0.10300X0.07100*%
%ADD52R,0.04540X0.04934*%
%ADD53R,0.06706X0.08674*%
%ADD54R,0.15761X0.08674*%
%ADD55R,0.09461X0.08674*%
%ADD56R,0.05918X0.05918*%
%ADD57O,0.08280X0.03162*%
%ADD58R,0.03950X0.04343*%
%ADD59R,0.04343X0.03950*%
%ADD60R,0.11627X0.04737*%
%ADD61R,0.08674X0.04737*%
%ADD62R,0.04737X0.08674*%
%ADD63C,0.03162*%
%ADD64C,0.06706*%
%ADD65C,0.06509*%
%ADD66R,0.07887X0.08280*%
%ADD67C,0.00800*%
D44*
X132972Y185236D02*
D03*
X138878D02*
D03*
X122638Y216535D02*
D03*
X116732D02*
D03*
X138779Y194980D02*
D03*
X132874D02*
D03*
X220276Y179134D02*
D03*
X226181D02*
D03*
X220276Y207874D02*
D03*
X226181D02*
D03*
X220276Y198031D02*
D03*
X226181D02*
D03*
X220276Y188091D02*
D03*
X226181D02*
D03*
X220276Y168504D02*
D03*
X226181D02*
D03*
X220276Y158661D02*
D03*
X226181D02*
D03*
X256890Y178740D02*
D03*
X262795D02*
D03*
X262795Y168504D02*
D03*
X256890D02*
D03*
X207283Y141732D02*
D03*
X213189D02*
D03*
X207283Y131299D02*
D03*
X213189D02*
D03*
D45*
X244980Y210433D02*
D03*
X276279D02*
D03*
X244980Y192717D02*
D03*
X276279D02*
D03*
D46*
X243898Y109449D02*
D03*
X249803D02*
D03*
X230118Y131102D02*
D03*
X224213D02*
D03*
D47*
X162992Y134646D02*
D03*
X150394D02*
D03*
D48*
X129921Y111221D02*
D03*
Y125787D02*
D03*
D49*
X159252Y114906D02*
D03*
X156693D02*
D03*
X154134D02*
D03*
X151575D02*
D03*
X149016D02*
D03*
D50*
X150197Y104276D02*
D03*
X158071D02*
D03*
D51*
X135827Y155512D02*
D03*
Y143606D02*
D03*
D52*
X132972Y204921D02*
D03*
X138681D02*
D03*
X230020Y143307D02*
D03*
X224311D02*
D03*
X273917Y156693D02*
D03*
X279626D02*
D03*
D53*
X195669Y131299D02*
D03*
X186614D02*
D03*
X177559D02*
D03*
D54*
X186614Y106496D02*
D03*
D55*
X210236Y107874D02*
D03*
Y120472D02*
D03*
X276772Y139370D02*
D03*
Y126772D02*
D03*
D56*
X225000Y108465D02*
D03*
Y116732D02*
D03*
X231693Y108465D02*
D03*
Y116732D02*
D03*
D57*
X261205Y122205D02*
D03*
Y127205D02*
D03*
Y132205D02*
D03*
Y137205D02*
D03*
Y142205D02*
D03*
Y147205D02*
D03*
Y152205D02*
D03*
Y157205D02*
D03*
X242701Y122205D02*
D03*
Y127205D02*
D03*
Y132205D02*
D03*
Y137205D02*
D03*
Y142205D02*
D03*
Y147205D02*
D03*
Y152205D02*
D03*
Y157205D02*
D03*
D58*
X275197Y178740D02*
D03*
X278937Y170866D02*
D03*
X271457D02*
D03*
D59*
X240551Y175591D02*
D03*
X248425Y179331D02*
D03*
Y171850D02*
D03*
D60*
X117028Y136299D02*
D03*
X106201Y166299D02*
D03*
Y186299D02*
D03*
X117028Y156299D02*
D03*
X106201Y146299D02*
D03*
X117028Y176299D02*
D03*
Y196299D02*
D03*
X106201Y206299D02*
D03*
D61*
X150000Y210630D02*
D03*
Y202756D02*
D03*
Y194882D02*
D03*
Y187008D02*
D03*
Y179134D02*
D03*
Y171260D02*
D03*
Y163386D02*
D03*
Y155512D02*
D03*
X209055Y155512D02*
D03*
Y163386D02*
D03*
Y171260D02*
D03*
Y179134D02*
D03*
Y187008D02*
D03*
Y194882D02*
D03*
Y202756D02*
D03*
Y210630D02*
D03*
D62*
X159843Y150394D02*
D03*
X167717D02*
D03*
X175591D02*
D03*
X183465D02*
D03*
X191339D02*
D03*
X199213D02*
D03*
D63*
X264411Y196563D02*
D03*
X254569Y206405D02*
D03*
X264411D02*
D03*
X195513Y196563D02*
D03*
Y186721D02*
D03*
Y176878D02*
D03*
X185671Y167035D02*
D03*
Y176878D02*
D03*
Y186721D02*
D03*
Y196563D02*
D03*
Y206405D02*
D03*
X175828D02*
D03*
Y196563D02*
D03*
Y186721D02*
D03*
Y176878D02*
D03*
X165986Y167035D02*
D03*
Y206405D02*
D03*
Y196563D02*
D03*
Y186721D02*
D03*
X146301Y147350D02*
D03*
X126616Y137508D02*
D03*
X116773Y127665D02*
D03*
X106931D02*
D03*
Y137508D02*
D03*
Y157193D02*
D03*
Y176878D02*
D03*
X116773Y186721D02*
D03*
Y206405D02*
D03*
X234646Y123228D02*
D03*
X280709Y109449D02*
D03*
X261024D02*
D03*
X270866D02*
D03*
X269291Y161811D02*
D03*
Y150000D02*
D03*
X238189Y197638D02*
D03*
X238583Y207874D02*
D03*
X251181Y147638D02*
D03*
X248976Y152205D02*
D03*
X235827Y174803D02*
D03*
X157480Y210630D02*
D03*
X175591Y157087D02*
D03*
X128347Y211417D02*
D03*
X236221Y132236D02*
D03*
Y137173D02*
D03*
X263779Y118209D02*
D03*
X191339Y118898D02*
D03*
X154331Y124409D02*
D03*
X151575Y121260D02*
D03*
X135827Y161516D02*
D03*
X201279Y194685D02*
D03*
X201575Y186909D02*
D03*
X132874Y179527D02*
D03*
X198819Y141732D02*
D03*
X219291Y113780D02*
D03*
X218504Y141732D02*
D03*
D64*
X105512Y218307D02*
D03*
X110433Y228150D02*
D03*
X128149D02*
D03*
X133071Y218307D02*
D03*
D65*
X163976Y114906D02*
D03*
X144291D02*
D03*
D66*
X141535Y104276D02*
D03*
X166732D02*
D03*
D67*
X267126Y234252D02*
D03*
X111614Y108268D02*
D03*
M02*
