G04 Layer_Physical_Order=2*
G04 Layer_Color=11436288*
%FSLAX25Y25*%
%MOIN*%
G70*
G01*
G75*
%ADD29C,0.01201*%
%ADD30C,0.01200*%
%ADD32C,0.02362*%
%ADD33C,0.05906*%
%ADD34C,0.05709*%
%ADD35R,0.07087X0.07480*%
%ADD36R,0.09449X0.02992*%
G36*
X143701Y214567D02*
X285433D01*
Y100394D01*
X171276D01*
Y103776D01*
X162189D01*
Y100394D01*
X146079D01*
Y103776D01*
X136992D01*
Y100394D01*
X100394D01*
X100394Y224409D01*
X133858Y224410D01*
X143701Y214567D01*
D02*
G37*
%LPC*%
G36*
X145801Y149475D02*
X145450Y149405D01*
X144728Y148923D01*
X144246Y148201D01*
X144176Y147850D01*
X145801D01*
Y149475D01*
D02*
G37*
G36*
X146801D02*
Y147850D01*
X148425D01*
X148355Y148201D01*
X147873Y148923D01*
X147152Y149405D01*
X146801Y149475D01*
D02*
G37*
G36*
X145801Y146850D02*
X144176D01*
X144246Y146499D01*
X144728Y145778D01*
X145450Y145296D01*
X145801Y145226D01*
Y146850D01*
D02*
G37*
G36*
X148425D02*
X146801D01*
Y145226D01*
X147152Y145296D01*
X147873Y145778D01*
X148355Y146499D01*
X148425Y146850D01*
D02*
G37*
G36*
X269291Y163729D02*
X268557Y163583D01*
X267935Y163167D01*
X267519Y162545D01*
X267373Y161811D01*
X267519Y161077D01*
X267935Y160455D01*
X267966Y160434D01*
Y151377D01*
X267935Y151356D01*
X267519Y150734D01*
X267373Y150000D01*
X267519Y149266D01*
X267935Y148644D01*
X268557Y148228D01*
X269291Y148082D01*
X270025Y148228D01*
X270648Y148644D01*
X271063Y149266D01*
X271209Y150000D01*
X271063Y150734D01*
X270648Y151356D01*
X270617Y151377D01*
Y160434D01*
X270648Y160455D01*
X271063Y161077D01*
X271209Y161811D01*
X271063Y162545D01*
X270648Y163167D01*
X270025Y163583D01*
X269291Y163729D01*
D02*
G37*
G36*
X128347Y213335D02*
X127612Y213189D01*
X126990Y212773D01*
X126575Y212151D01*
X126428Y211417D01*
X126575Y210683D01*
X126990Y210061D01*
X127612Y209645D01*
X128347Y209499D01*
X128382Y209507D01*
X174265Y163624D01*
Y158463D01*
X174234Y158443D01*
X173819Y157821D01*
X173673Y157087D01*
X173819Y156353D01*
X174234Y155730D01*
X174857Y155315D01*
X175591Y155169D01*
X176324Y155315D01*
X176947Y155730D01*
X177363Y156353D01*
X177508Y157087D01*
X177363Y157821D01*
X176947Y158443D01*
X176916Y158463D01*
Y164173D01*
X176815Y164681D01*
X176528Y165111D01*
X130257Y211382D01*
X130264Y211417D01*
X130118Y212151D01*
X129703Y212773D01*
X129080Y213189D01*
X128347Y213335D01*
D02*
G37*
G36*
X106431Y159317D02*
X106080Y159248D01*
X105358Y158765D01*
X104876Y158044D01*
X104806Y157693D01*
X106431D01*
Y159317D01*
D02*
G37*
G36*
Y156693D02*
X104806D01*
X104876Y156342D01*
X105358Y155620D01*
X106080Y155138D01*
X106431Y155069D01*
Y156693D01*
D02*
G37*
G36*
X109055D02*
X107431D01*
Y155069D01*
X107782Y155138D01*
X108503Y155620D01*
X108985Y156342D01*
X109055Y156693D01*
D02*
G37*
G36*
X127116Y139632D02*
Y138008D01*
X128740D01*
X128670Y138359D01*
X128188Y139080D01*
X127467Y139562D01*
X127116Y139632D01*
D02*
G37*
G36*
X106431Y137008D02*
X104806D01*
X104876Y136657D01*
X105358Y135935D01*
X106080Y135453D01*
X106431Y135383D01*
Y137008D01*
D02*
G37*
G36*
X109055D02*
X107431D01*
Y135383D01*
X107782Y135453D01*
X108503Y135935D01*
X108985Y136657D01*
X109055Y137008D01*
D02*
G37*
G36*
X261527Y136192D02*
X250678D01*
Y131800D01*
X261527D01*
Y136192D01*
D02*
G37*
G36*
X236221Y139091D02*
X235487Y138945D01*
X234864Y138529D01*
X234449Y137907D01*
X234446Y137896D01*
X224456Y127906D01*
X222286Y125735D01*
X155707D01*
X155687Y125766D01*
X155065Y126181D01*
X154331Y126327D01*
X153597Y126181D01*
X152974Y125766D01*
X152559Y125143D01*
X152413Y124409D01*
X152559Y123676D01*
X152812Y123297D01*
X152451Y122937D01*
X152309Y123032D01*
X151575Y123178D01*
X150841Y123032D01*
X150219Y122616D01*
X149803Y121994D01*
X149657Y121260D01*
X149803Y120526D01*
X150219Y119904D01*
X150841Y119488D01*
X151575Y119342D01*
X152309Y119488D01*
X152931Y119904D01*
X153031Y120053D01*
X189319D01*
X189551Y119553D01*
X189421Y118898D01*
X189567Y118164D01*
X189982Y117541D01*
X190605Y117126D01*
X191339Y116980D01*
X192073Y117126D01*
X192695Y117541D01*
X192715Y117572D01*
X250678D01*
Y116800D01*
X261527D01*
Y116883D01*
X262403D01*
X262423Y116852D01*
X263046Y116437D01*
X263779Y116291D01*
X264513Y116437D01*
X265136Y116852D01*
X265156Y116883D01*
X266032D01*
Y116800D01*
X276881D01*
Y121000D01*
X276881Y121124D01*
X277181Y121500D01*
Y121518D01*
X277181Y121568D01*
Y123496D01*
X265732D01*
Y121568D01*
X265732Y121518D01*
Y121500D01*
X266032Y121124D01*
X266032Y121000D01*
Y119534D01*
X265156D01*
X265136Y119565D01*
X264513Y119981D01*
X263779Y120127D01*
X263046Y119981D01*
X262423Y119565D01*
X262403Y119534D01*
X261880D01*
X261527Y119888D01*
Y121000D01*
X261527Y121124D01*
X261827Y121500D01*
Y121518D01*
X261827Y121568D01*
Y123496D01*
X250378D01*
Y121568D01*
X250378Y121518D01*
Y121500D01*
X250678Y121124D01*
X250678Y121000D01*
Y120223D01*
X224343D01*
X224136Y120723D01*
X226652Y123240D01*
X227243Y123830D01*
X234323Y130910D01*
X234844D01*
X234864Y130880D01*
X235487Y130464D01*
X236221Y130318D01*
X236954Y130464D01*
X237577Y130880D01*
X237992Y131502D01*
X238138Y132236D01*
X237992Y132970D01*
X237577Y133592D01*
X236954Y134008D01*
X236221Y134154D01*
X235487Y134008D01*
X234978Y133668D01*
X234724Y133716D01*
X234548Y134214D01*
X234553Y134252D01*
X235666Y135366D01*
X236221Y135255D01*
X236954Y135401D01*
X237577Y135817D01*
X237992Y136439D01*
X238138Y137173D01*
X237992Y137907D01*
X237577Y138529D01*
X236954Y138945D01*
X236221Y139091D01*
D02*
G37*
G36*
X126116Y137008D02*
X124491D01*
X124561Y136657D01*
X125043Y135935D01*
X125765Y135453D01*
X126116Y135383D01*
Y137008D01*
D02*
G37*
G36*
X107431Y139632D02*
Y138008D01*
X109055D01*
X108985Y138359D01*
X108503Y139080D01*
X107782Y139562D01*
X107431Y139632D01*
D02*
G37*
G36*
X126116D02*
X125765Y139562D01*
X125043Y139080D01*
X124561Y138359D01*
X124491Y138008D01*
X126116D01*
Y139632D01*
D02*
G37*
G36*
X128740Y137008D02*
X127116D01*
Y135383D01*
X127467Y135453D01*
X128188Y135935D01*
X128670Y136657D01*
X128740Y137008D01*
D02*
G37*
G36*
X106431Y139632D02*
X106080Y139562D01*
X105358Y139080D01*
X104876Y138359D01*
X104806Y138008D01*
X106431D01*
Y139632D01*
D02*
G37*
G36*
X107431Y159317D02*
Y157693D01*
X109055D01*
X108985Y158044D01*
X108503Y158765D01*
X107782Y159248D01*
X107431Y159317D01*
D02*
G37*
G36*
X177953Y176378D02*
X176328D01*
Y174754D01*
X176679Y174823D01*
X177401Y175305D01*
X177883Y176027D01*
X177953Y176378D01*
D02*
G37*
G36*
X185171D02*
X183546D01*
X183616Y176027D01*
X184098Y175305D01*
X184820Y174823D01*
X185171Y174754D01*
Y176378D01*
D02*
G37*
G36*
X109055D02*
X107431D01*
Y174754D01*
X107782Y174823D01*
X108503Y175305D01*
X108985Y176027D01*
X109055Y176378D01*
D02*
G37*
G36*
X175328D02*
X173704D01*
X173774Y176027D01*
X174256Y175305D01*
X174977Y174823D01*
X175328Y174754D01*
Y176378D01*
D02*
G37*
G36*
X187795D02*
X186171D01*
Y174754D01*
X186522Y174823D01*
X187243Y175305D01*
X187725Y176027D01*
X187795Y176378D01*
D02*
G37*
G36*
X106431Y179002D02*
X106080Y178932D01*
X105358Y178450D01*
X104876Y177729D01*
X104806Y177378D01*
X106431D01*
Y179002D01*
D02*
G37*
G36*
X107431D02*
Y177378D01*
X109055D01*
X108985Y177729D01*
X108503Y178450D01*
X107782Y178932D01*
X107431Y179002D01*
D02*
G37*
G36*
X195013Y176378D02*
X193389D01*
X193459Y176027D01*
X193941Y175305D01*
X194662Y174823D01*
X195013Y174754D01*
Y176378D01*
D02*
G37*
G36*
X197638D02*
X196013D01*
Y174754D01*
X196364Y174823D01*
X197086Y175305D01*
X197568Y176027D01*
X197638Y176378D01*
D02*
G37*
G36*
X106431D02*
X104806D01*
X104876Y176027D01*
X105358Y175305D01*
X106080Y174823D01*
X106431Y174754D01*
Y176378D01*
D02*
G37*
G36*
X168110Y166535D02*
X166486D01*
Y164911D01*
X166837Y164981D01*
X167558Y165463D01*
X168040Y166184D01*
X168110Y166535D01*
D02*
G37*
G36*
X185171D02*
X183546D01*
X183616Y166184D01*
X184098Y165463D01*
X184820Y164981D01*
X185171Y164911D01*
Y166535D01*
D02*
G37*
G36*
X132874Y181445D02*
X132140Y181299D01*
X131518Y180884D01*
X131102Y180261D01*
X130956Y179527D01*
X131102Y178794D01*
X131518Y178171D01*
X131548Y178151D01*
Y164468D01*
X131649Y163961D01*
X131937Y163531D01*
X133916Y161551D01*
X133909Y161516D01*
X134055Y160782D01*
X134470Y160160D01*
X135093Y159744D01*
X135827Y159598D01*
X136561Y159744D01*
X137183Y160160D01*
X137599Y160782D01*
X137745Y161516D01*
X137599Y162250D01*
X137183Y162872D01*
X136561Y163288D01*
X135827Y163434D01*
X135791Y163426D01*
X134200Y165018D01*
Y178151D01*
X134230Y178171D01*
X134646Y178794D01*
X134792Y179527D01*
X134646Y180261D01*
X134230Y180884D01*
X133608Y181299D01*
X132874Y181445D01*
D02*
G37*
G36*
X165486Y166535D02*
X163862D01*
X163931Y166184D01*
X164413Y165463D01*
X165135Y164981D01*
X165486Y164911D01*
Y166535D01*
D02*
G37*
G36*
X187795D02*
X186171D01*
Y164911D01*
X186522Y164981D01*
X187243Y165463D01*
X187725Y166184D01*
X187795Y166535D01*
D02*
G37*
G36*
X185171Y169160D02*
X184820Y169090D01*
X184098Y168608D01*
X183616Y167886D01*
X183546Y167535D01*
X185171D01*
Y169160D01*
D02*
G37*
G36*
X186171D02*
Y167535D01*
X187795D01*
X187725Y167886D01*
X187243Y168608D01*
X186522Y169090D01*
X186171Y169160D01*
D02*
G37*
G36*
X165486D02*
X165135Y169090D01*
X164413Y168608D01*
X163931Y167886D01*
X163862Y167535D01*
X165486D01*
Y169160D01*
D02*
G37*
G36*
X166486D02*
Y167535D01*
X168110D01*
X168040Y167886D01*
X167558Y168608D01*
X166837Y169090D01*
X166486Y169160D01*
D02*
G37*
G36*
X261524Y111573D02*
Y109949D01*
X263148D01*
X263078Y110300D01*
X262596Y111021D01*
X261875Y111503D01*
X261524Y111573D01*
D02*
G37*
G36*
X270366D02*
X270015Y111503D01*
X269294Y111021D01*
X268812Y110300D01*
X268742Y109949D01*
X270366D01*
Y111573D01*
D02*
G37*
G36*
X282833Y108949D02*
X281209D01*
Y107325D01*
X281560Y107394D01*
X282281Y107876D01*
X282763Y108598D01*
X282833Y108949D01*
D02*
G37*
G36*
X260524Y111573D02*
X260173Y111503D01*
X259451Y111021D01*
X258969Y110300D01*
X258899Y109949D01*
X260524D01*
Y111573D01*
D02*
G37*
G36*
X271366D02*
Y109949D01*
X272990D01*
X272921Y110300D01*
X272439Y111021D01*
X271717Y111503D01*
X271366Y111573D01*
D02*
G37*
G36*
X143791Y114406D02*
X140470D01*
X140536Y113899D01*
X140925Y112962D01*
X141542Y112157D01*
X142348Y111539D01*
X143285Y111150D01*
X143791Y111084D01*
Y114406D01*
D02*
G37*
G36*
X148113D02*
X144791D01*
Y111084D01*
X145298Y111150D01*
X146235Y111539D01*
X147040Y112157D01*
X147658Y112962D01*
X148047Y113899D01*
X148113Y114406D01*
D02*
G37*
G36*
X280209Y111573D02*
X279858Y111503D01*
X279136Y111021D01*
X278654Y110300D01*
X278584Y109949D01*
X280209D01*
Y111573D01*
D02*
G37*
G36*
X281209D02*
Y109949D01*
X282833D01*
X282763Y110300D01*
X282281Y111021D01*
X281560Y111503D01*
X281209Y111573D01*
D02*
G37*
G36*
X280209Y108949D02*
X278584D01*
X278654Y108598D01*
X279136Y107876D01*
X279858Y107394D01*
X280209Y107325D01*
Y108949D01*
D02*
G37*
G36*
X146079Y109016D02*
X142035D01*
Y104776D01*
X146079D01*
Y109016D01*
D02*
G37*
G36*
X166232D02*
X162189D01*
Y104776D01*
X166232D01*
Y109016D01*
D02*
G37*
G36*
X111614Y114905D02*
X110319Y114778D01*
X109074Y114400D01*
X107927Y113787D01*
X106921Y112961D01*
X106095Y111955D01*
X105482Y110808D01*
X105104Y109563D01*
X104977Y108268D01*
X105104Y106973D01*
X105482Y105728D01*
X106095Y104580D01*
X106921Y103574D01*
X107927Y102749D01*
X109074Y102136D01*
X110319Y101758D01*
X111614Y101630D01*
X112909Y101758D01*
X114154Y102136D01*
X115302Y102749D01*
X116308Y103574D01*
X117133Y104580D01*
X117746Y105728D01*
X118124Y106973D01*
X118252Y108268D01*
X118124Y109563D01*
X117746Y110808D01*
X117133Y111955D01*
X116308Y112961D01*
X115302Y113787D01*
X114154Y114400D01*
X112909Y114778D01*
X111614Y114905D01*
D02*
G37*
G36*
X141035Y109016D02*
X136992D01*
Y104776D01*
X141035D01*
Y109016D01*
D02*
G37*
G36*
X171276D02*
X167232D01*
Y104776D01*
X171276D01*
Y109016D01*
D02*
G37*
G36*
X270366Y108949D02*
X268742D01*
X268812Y108598D01*
X269294Y107876D01*
X270015Y107394D01*
X270366Y107325D01*
Y108949D01*
D02*
G37*
G36*
X272990D02*
X271366D01*
Y107325D01*
X271717Y107394D01*
X272439Y107876D01*
X272921Y108598D01*
X272990Y108949D01*
D02*
G37*
G36*
X260524D02*
X258899D01*
X258969Y108598D01*
X259451Y107876D01*
X260173Y107394D01*
X260524Y107325D01*
Y108949D01*
D02*
G37*
G36*
X263148D02*
X261524D01*
Y107325D01*
X261875Y107394D01*
X262596Y107876D01*
X263078Y108598D01*
X263148Y108949D01*
D02*
G37*
G36*
X163476Y114406D02*
X160155D01*
X160221Y113899D01*
X160610Y112962D01*
X161227Y112157D01*
X162033Y111539D01*
X162970Y111150D01*
X163476Y111084D01*
Y114406D01*
D02*
G37*
G36*
X109055Y127165D02*
X107431D01*
Y125541D01*
X107782Y125611D01*
X108503Y126093D01*
X108985Y126814D01*
X109055Y127165D01*
D02*
G37*
G36*
X116273D02*
X114649D01*
X114719Y126814D01*
X115201Y126093D01*
X115922Y125611D01*
X116273Y125541D01*
Y127165D01*
D02*
G37*
G36*
X261527Y131192D02*
X250678D01*
Y126992D01*
X250678Y126868D01*
X250378Y126492D01*
Y126475D01*
X250378Y126424D01*
Y124496D01*
X261827D01*
Y126424D01*
X261827Y126475D01*
Y126492D01*
X261527Y126868D01*
X261527Y126992D01*
Y131192D01*
D02*
G37*
G36*
X106431Y127165D02*
X104806D01*
X104876Y126814D01*
X105358Y126093D01*
X106080Y125611D01*
X106431Y125541D01*
Y127165D01*
D02*
G37*
G36*
X118898D02*
X117273D01*
Y125541D01*
X117624Y125611D01*
X118346Y126093D01*
X118828Y126814D01*
X118898Y127165D01*
D02*
G37*
G36*
X116273Y129790D02*
X115922Y129720D01*
X115201Y129238D01*
X114719Y128516D01*
X114649Y128165D01*
X116273D01*
Y129790D01*
D02*
G37*
G36*
X117273D02*
Y128165D01*
X118898D01*
X118828Y128516D01*
X118346Y129238D01*
X117624Y129720D01*
X117273Y129790D01*
D02*
G37*
G36*
X106431D02*
X106080Y129720D01*
X105358Y129238D01*
X104876Y128516D01*
X104806Y128165D01*
X106431D01*
Y129790D01*
D02*
G37*
G36*
X107431D02*
Y128165D01*
X109055D01*
X108985Y128516D01*
X108503Y129238D01*
X107782Y129720D01*
X107431Y129790D01*
D02*
G37*
G36*
X235146Y125353D02*
Y123728D01*
X236770D01*
X236700Y124079D01*
X236218Y124801D01*
X235497Y125283D01*
X235146Y125353D01*
D02*
G37*
G36*
X143791Y118727D02*
X143285Y118661D01*
X142348Y118272D01*
X141542Y117654D01*
X140925Y116849D01*
X140536Y115912D01*
X140470Y115405D01*
X143791D01*
Y118727D01*
D02*
G37*
G36*
X144791D02*
Y115405D01*
X148113D01*
X148047Y115912D01*
X147658Y116849D01*
X147040Y117654D01*
X146235Y118272D01*
X145298Y118661D01*
X144791Y118727D01*
D02*
G37*
G36*
X167798Y114406D02*
X164476D01*
Y111084D01*
X164982Y111150D01*
X165920Y111539D01*
X166725Y112157D01*
X167343Y112962D01*
X167731Y113899D01*
X167798Y114406D01*
D02*
G37*
G36*
X276881Y131192D02*
X266032D01*
Y126992D01*
X266032Y126868D01*
X265732Y126492D01*
Y126475D01*
X265732Y126424D01*
Y124496D01*
X277181D01*
Y126424D01*
X277181Y126475D01*
Y126492D01*
X276881Y126868D01*
X276881Y126992D01*
Y127671D01*
X277541D01*
X280958Y124254D01*
Y118266D01*
X277798Y115105D01*
X220668D01*
X220647Y115136D01*
X220025Y115552D01*
X219291Y115698D01*
X218557Y115552D01*
X217935Y115136D01*
X217519Y114514D01*
X217373Y113780D01*
X217519Y113046D01*
X217935Y112424D01*
X218557Y112008D01*
X219291Y111862D01*
X220025Y112008D01*
X220647Y112424D01*
X220668Y112454D01*
X278347D01*
X278854Y112555D01*
X279284Y112843D01*
X283221Y116779D01*
X283508Y117209D01*
X283609Y117717D01*
Y124803D01*
X283508Y125310D01*
X283221Y125740D01*
X279028Y129933D01*
X278598Y130221D01*
X278091Y130322D01*
X276881D01*
Y131192D01*
D02*
G37*
G36*
X163476Y118727D02*
X162970Y118661D01*
X162033Y118272D01*
X161227Y117654D01*
X160610Y116849D01*
X160221Y115912D01*
X160155Y115405D01*
X163476D01*
Y118727D01*
D02*
G37*
G36*
X236770Y122728D02*
X235146D01*
Y121104D01*
X235497Y121174D01*
X236218Y121656D01*
X236700Y122377D01*
X236770Y122728D01*
D02*
G37*
G36*
X234146Y125353D02*
X233795Y125283D01*
X233073Y124801D01*
X232591Y124079D01*
X232521Y123728D01*
X234146D01*
Y125353D01*
D02*
G37*
G36*
X164476Y118727D02*
Y115405D01*
X167798D01*
X167731Y115912D01*
X167343Y116849D01*
X166725Y117654D01*
X165920Y118272D01*
X164982Y118661D01*
X164476Y118727D01*
D02*
G37*
G36*
X234146Y122728D02*
X232521D01*
X232591Y122377D01*
X233073Y121656D01*
X233795Y121174D01*
X234146Y121104D01*
Y122728D01*
D02*
G37*
G36*
X177953Y205906D02*
X176328D01*
Y204281D01*
X176679Y204351D01*
X177401Y204833D01*
X177883Y205555D01*
X177953Y205906D01*
D02*
G37*
G36*
X185171D02*
X183546D01*
X183616Y205555D01*
X184098Y204833D01*
X184820Y204351D01*
X185171Y204281D01*
Y205906D01*
D02*
G37*
G36*
X168110D02*
X166486D01*
Y204281D01*
X166837Y204351D01*
X167558Y204833D01*
X168040Y205555D01*
X168110Y205906D01*
D02*
G37*
G36*
X175328D02*
X173704D01*
X173774Y205555D01*
X174256Y204833D01*
X174977Y204351D01*
X175328Y204281D01*
Y205906D01*
D02*
G37*
G36*
X187795D02*
X186171D01*
Y204281D01*
X186522Y204351D01*
X187243Y204833D01*
X187725Y205555D01*
X187795Y205906D01*
D02*
G37*
G36*
X263911D02*
X262287D01*
X262356Y205555D01*
X262839Y204833D01*
X263560Y204351D01*
X263911Y204281D01*
Y205906D01*
D02*
G37*
G36*
X266535D02*
X264911D01*
Y204281D01*
X265262Y204351D01*
X265984Y204833D01*
X266466Y205555D01*
X266535Y205906D01*
D02*
G37*
G36*
X254068D02*
X252444D01*
X252514Y205555D01*
X252996Y204833D01*
X253717Y204351D01*
X254068Y204281D01*
Y205906D01*
D02*
G37*
G36*
X256693D02*
X255068D01*
Y204281D01*
X255420Y204351D01*
X256141Y204833D01*
X256623Y205555D01*
X256693Y205906D01*
D02*
G37*
G36*
X165486D02*
X163862D01*
X163931Y205555D01*
X164413Y204833D01*
X165135Y204351D01*
X165486Y204281D01*
Y205906D01*
D02*
G37*
G36*
X186171Y198687D02*
Y197063D01*
X187795D01*
X187725Y197414D01*
X187243Y198135D01*
X186522Y198617D01*
X186171Y198687D01*
D02*
G37*
G36*
X195013D02*
X194662Y198617D01*
X193941Y198135D01*
X193459Y197414D01*
X193389Y197063D01*
X195013D01*
Y198687D01*
D02*
G37*
G36*
X176328D02*
Y197063D01*
X177953D01*
X177883Y197414D01*
X177401Y198135D01*
X176679Y198617D01*
X176328Y198687D01*
D02*
G37*
G36*
X185171D02*
X184820Y198617D01*
X184098Y198135D01*
X183616Y197414D01*
X183546Y197063D01*
X185171D01*
Y198687D01*
D02*
G37*
G36*
X196013D02*
Y197063D01*
X197638D01*
X197568Y197414D01*
X197086Y198135D01*
X196364Y198617D01*
X196013Y198687D01*
D02*
G37*
G36*
X116273Y205906D02*
X114649D01*
X114719Y205555D01*
X115201Y204833D01*
X115922Y204351D01*
X116273Y204281D01*
Y205906D01*
D02*
G37*
G36*
X118898D02*
X117273D01*
Y204281D01*
X117624Y204351D01*
X118346Y204833D01*
X118828Y205555D01*
X118898Y205906D01*
D02*
G37*
G36*
X263911Y198687D02*
X263560Y198617D01*
X262839Y198135D01*
X262356Y197414D01*
X262287Y197063D01*
X263911D01*
Y198687D01*
D02*
G37*
G36*
X264911D02*
Y197063D01*
X266535D01*
X266466Y197414D01*
X265984Y198135D01*
X265262Y198617D01*
X264911Y198687D01*
D02*
G37*
G36*
X116273Y208530D02*
X115922Y208460D01*
X115201Y207978D01*
X114719Y207257D01*
X114649Y206906D01*
X116273D01*
Y208530D01*
D02*
G37*
G36*
X109433Y217807D02*
X106012D01*
Y214386D01*
X106544Y214456D01*
X107505Y214855D01*
X108331Y215488D01*
X108965Y216314D01*
X109363Y217276D01*
X109433Y217807D01*
D02*
G37*
G36*
X132571D02*
X129150D01*
X129220Y217276D01*
X129618Y216314D01*
X130252Y215488D01*
X131077Y214855D01*
X132039Y214456D01*
X132571Y214386D01*
Y217807D01*
D02*
G37*
G36*
X264911Y208530D02*
Y206906D01*
X266535D01*
X266466Y207257D01*
X265984Y207978D01*
X265262Y208460D01*
X264911Y208530D01*
D02*
G37*
G36*
X105012Y217807D02*
X101591D01*
X101661Y217276D01*
X102059Y216314D01*
X102693Y215488D01*
X103518Y214855D01*
X104480Y214456D01*
X105012Y214386D01*
Y217807D01*
D02*
G37*
G36*
X136992D02*
X133571D01*
Y214386D01*
X134103Y214456D01*
X135064Y214855D01*
X135890Y215488D01*
X136524Y216314D01*
X136922Y217276D01*
X136992Y217807D01*
D02*
G37*
G36*
X132571Y222228D02*
X132039Y222158D01*
X131077Y221760D01*
X130252Y221127D01*
X129618Y220301D01*
X129220Y219339D01*
X129150Y218807D01*
X132571D01*
Y222228D01*
D02*
G37*
G36*
X133571D02*
Y218807D01*
X136992D01*
X136922Y219339D01*
X136524Y220301D01*
X135890Y221127D01*
X135064Y221760D01*
X134103Y222158D01*
X133571Y222228D01*
D02*
G37*
G36*
X105012D02*
X104480Y222158D01*
X103518Y221760D01*
X102693Y221127D01*
X102059Y220301D01*
X101661Y219339D01*
X101591Y218807D01*
X105012D01*
Y222228D01*
D02*
G37*
G36*
X106012D02*
Y218807D01*
X109433D01*
X109363Y219339D01*
X108965Y220301D01*
X108331Y221127D01*
X107505Y221760D01*
X106544Y222158D01*
X106012Y222228D01*
D02*
G37*
G36*
X263911Y208530D02*
X263560Y208460D01*
X262839Y207978D01*
X262356Y207257D01*
X262287Y206906D01*
X263911D01*
Y208530D01*
D02*
G37*
G36*
X166486D02*
Y206906D01*
X168110D01*
X168040Y207257D01*
X167558Y207978D01*
X166837Y208460D01*
X166486Y208530D01*
D02*
G37*
G36*
X175328D02*
X174977Y208460D01*
X174256Y207978D01*
X173774Y207257D01*
X173704Y206906D01*
X175328D01*
Y208530D01*
D02*
G37*
G36*
X117273D02*
Y206906D01*
X118898D01*
X118828Y207257D01*
X118346Y207978D01*
X117624Y208460D01*
X117273Y208530D01*
D02*
G37*
G36*
X165486D02*
X165135Y208460D01*
X164413Y207978D01*
X163931Y207257D01*
X163862Y206906D01*
X165486D01*
Y208530D01*
D02*
G37*
G36*
X176328D02*
Y206906D01*
X177953D01*
X177883Y207257D01*
X177401Y207978D01*
X176679Y208460D01*
X176328Y208530D01*
D02*
G37*
G36*
X254068D02*
X253717Y208460D01*
X252996Y207978D01*
X252514Y207257D01*
X252444Y206906D01*
X254068D01*
Y208530D01*
D02*
G37*
G36*
X255068D02*
Y206906D01*
X256693D01*
X256623Y207257D01*
X256141Y207978D01*
X255420Y208460D01*
X255068Y208530D01*
D02*
G37*
G36*
X185171D02*
X184820Y208460D01*
X184098Y207978D01*
X183616Y207257D01*
X183546Y206906D01*
X185171D01*
Y208530D01*
D02*
G37*
G36*
X186171D02*
Y206906D01*
X187795D01*
X187725Y207257D01*
X187243Y207978D01*
X186522Y208460D01*
X186171Y208530D01*
D02*
G37*
G36*
X175328Y198687D02*
X174977Y198617D01*
X174256Y198135D01*
X173774Y197414D01*
X173704Y197063D01*
X175328D01*
Y198687D01*
D02*
G37*
G36*
X185171Y186221D02*
X183546D01*
X183616Y185870D01*
X184098Y185148D01*
X184820Y184666D01*
X185171Y184596D01*
Y186221D01*
D02*
G37*
G36*
X187795D02*
X186171D01*
Y184596D01*
X186522Y184666D01*
X187243Y185148D01*
X187725Y185870D01*
X187795Y186221D01*
D02*
G37*
G36*
X175328D02*
X173704D01*
X173774Y185870D01*
X174256Y185148D01*
X174977Y184666D01*
X175328Y184596D01*
Y186221D01*
D02*
G37*
G36*
X177953D02*
X176328D01*
Y184596D01*
X176679Y184666D01*
X177401Y185148D01*
X177883Y185870D01*
X177953Y186221D01*
D02*
G37*
G36*
X195013D02*
X193389D01*
X193459Y185870D01*
X193941Y185148D01*
X194662Y184666D01*
X195013Y184596D01*
Y186221D01*
D02*
G37*
G36*
X117273Y188845D02*
Y187221D01*
X118898D01*
X118828Y187572D01*
X118346Y188293D01*
X117624Y188775D01*
X117273Y188845D01*
D02*
G37*
G36*
X165486D02*
X165135Y188775D01*
X164413Y188293D01*
X163931Y187572D01*
X163862Y187221D01*
X165486D01*
Y188845D01*
D02*
G37*
G36*
X197638Y186221D02*
X196013D01*
Y184596D01*
X196364Y184666D01*
X197086Y185148D01*
X197568Y185870D01*
X197638Y186221D01*
D02*
G37*
G36*
X116273Y188845D02*
X115922Y188775D01*
X115201Y188293D01*
X114719Y187572D01*
X114649Y187221D01*
X116273D01*
Y188845D01*
D02*
G37*
G36*
X168110Y186221D02*
X166486D01*
Y184596D01*
X166837Y184666D01*
X167558Y185148D01*
X168040Y185870D01*
X168110Y186221D01*
D02*
G37*
G36*
X185171Y179002D02*
X184820Y178932D01*
X184098Y178450D01*
X183616Y177729D01*
X183546Y177378D01*
X185171D01*
Y179002D01*
D02*
G37*
G36*
X186171D02*
Y177378D01*
X187795D01*
X187725Y177729D01*
X187243Y178450D01*
X186522Y178932D01*
X186171Y179002D01*
D02*
G37*
G36*
X175328D02*
X174977Y178932D01*
X174256Y178450D01*
X173774Y177729D01*
X173704Y177378D01*
X175328D01*
Y179002D01*
D02*
G37*
G36*
X176328D02*
Y177378D01*
X177953D01*
X177883Y177729D01*
X177401Y178450D01*
X176679Y178932D01*
X176328Y179002D01*
D02*
G37*
G36*
X195013D02*
X194662Y178932D01*
X193941Y178450D01*
X193459Y177729D01*
X193389Y177378D01*
X195013D01*
Y179002D01*
D02*
G37*
G36*
X118898Y186221D02*
X117273D01*
Y184596D01*
X117624Y184666D01*
X118346Y185148D01*
X118828Y185870D01*
X118898Y186221D01*
D02*
G37*
G36*
X165486D02*
X163862D01*
X163931Y185870D01*
X164413Y185148D01*
X165135Y184666D01*
X165486Y184596D01*
Y186221D01*
D02*
G37*
G36*
X196013Y179002D02*
Y177378D01*
X197638D01*
X197568Y177729D01*
X197086Y178450D01*
X196364Y178932D01*
X196013Y179002D01*
D02*
G37*
G36*
X116273Y186221D02*
X114649D01*
X114719Y185870D01*
X115201Y185148D01*
X115922Y184666D01*
X116273Y184596D01*
Y186221D01*
D02*
G37*
G36*
X166486Y188845D02*
Y187221D01*
X168110D01*
X168040Y187572D01*
X167558Y188293D01*
X166837Y188775D01*
X166486Y188845D01*
D02*
G37*
G36*
X187795Y196063D02*
X186171D01*
Y194439D01*
X186522Y194508D01*
X187243Y194991D01*
X187725Y195712D01*
X187795Y196063D01*
D02*
G37*
G36*
X195013D02*
X193389D01*
X193459Y195712D01*
X193941Y194991D01*
X194662Y194508D01*
X195013Y194439D01*
Y196063D01*
D02*
G37*
G36*
X177953D02*
X176328D01*
Y194439D01*
X176679Y194508D01*
X177401Y194991D01*
X177883Y195712D01*
X177953Y196063D01*
D02*
G37*
G36*
X185171D02*
X183546D01*
X183616Y195712D01*
X184098Y194991D01*
X184820Y194508D01*
X185171Y194439D01*
Y196063D01*
D02*
G37*
G36*
X197638D02*
X196013D01*
Y194439D01*
X196364Y194508D01*
X197086Y194991D01*
X197568Y195712D01*
X197638Y196063D01*
D02*
G37*
G36*
X165486Y198687D02*
X165135Y198617D01*
X164413Y198135D01*
X163931Y197414D01*
X163862Y197063D01*
X165486D01*
Y198687D01*
D02*
G37*
G36*
X166486D02*
Y197063D01*
X168110D01*
X168040Y197414D01*
X167558Y198135D01*
X166837Y198617D01*
X166486Y198687D01*
D02*
G37*
G36*
X263911Y196063D02*
X262287D01*
X262356Y195712D01*
X262839Y194991D01*
X263560Y194508D01*
X263911Y194439D01*
Y196063D01*
D02*
G37*
G36*
X266535D02*
X264911D01*
Y194439D01*
X265262Y194508D01*
X265984Y194991D01*
X266466Y195712D01*
X266535Y196063D01*
D02*
G37*
G36*
X175328D02*
X173704D01*
X173774Y195712D01*
X174256Y194991D01*
X174977Y194508D01*
X175328Y194439D01*
Y196063D01*
D02*
G37*
G36*
X185171Y188845D02*
X184820Y188775D01*
X184098Y188293D01*
X183616Y187572D01*
X183546Y187221D01*
X185171D01*
Y188845D01*
D02*
G37*
G36*
X186171D02*
Y187221D01*
X187795D01*
X187725Y187572D01*
X187243Y188293D01*
X186522Y188775D01*
X186171Y188845D01*
D02*
G37*
G36*
X175328D02*
X174977Y188775D01*
X174256Y188293D01*
X173774Y187572D01*
X173704Y187221D01*
X175328D01*
Y188845D01*
D02*
G37*
G36*
X176328D02*
Y187221D01*
X177953D01*
X177883Y187572D01*
X177401Y188293D01*
X176679Y188775D01*
X176328Y188845D01*
D02*
G37*
G36*
X195013D02*
X194662Y188775D01*
X193941Y188293D01*
X193459Y187572D01*
X193389Y187221D01*
X195013D01*
Y188845D01*
D02*
G37*
G36*
X165486Y196063D02*
X163862D01*
X163931Y195712D01*
X164413Y194991D01*
X165135Y194508D01*
X165486Y194439D01*
Y196063D01*
D02*
G37*
G36*
X168110D02*
X166486D01*
Y194439D01*
X166837Y194508D01*
X167558Y194991D01*
X168040Y195712D01*
X168110Y196063D01*
D02*
G37*
G36*
X196013Y188845D02*
Y187221D01*
X197638D01*
X197568Y187572D01*
X197086Y188293D01*
X196364Y188775D01*
X196013Y188845D01*
D02*
G37*
G36*
X157480Y212548D02*
X156746Y212402D01*
X156124Y211986D01*
X155708Y211364D01*
X155562Y210630D01*
X155708Y209896D01*
X156124Y209274D01*
X156746Y208858D01*
X157480Y208712D01*
X158214Y208858D01*
X158837Y209274D01*
X158857Y209304D01*
X188294D01*
X200668Y196931D01*
X200479Y196413D01*
X199923Y196041D01*
X199508Y195419D01*
X199362Y194685D01*
X199508Y193951D01*
X199923Y193329D01*
X199954Y193309D01*
Y193209D01*
X200055Y192701D01*
X200342Y192271D01*
X203916Y188697D01*
X203725Y188235D01*
X202951D01*
X202931Y188266D01*
X202309Y188681D01*
X201575Y188827D01*
X200841Y188681D01*
X200219Y188266D01*
X199803Y187643D01*
X199657Y186909D01*
X199803Y186176D01*
X200219Y185553D01*
X200841Y185137D01*
X201575Y184992D01*
X202309Y185137D01*
X202931Y185553D01*
X202951Y185584D01*
X203880D01*
X246152Y143312D01*
X245833Y142923D01*
X245783Y142957D01*
X245276Y143058D01*
X219881D01*
X219860Y143088D01*
X219238Y143504D01*
X218504Y143650D01*
X217770Y143504D01*
X217148Y143088D01*
X217127Y143058D01*
X200196D01*
X200175Y143088D01*
X199553Y143504D01*
X198819Y143650D01*
X198085Y143504D01*
X197463Y143088D01*
X197047Y142466D01*
X196901Y141732D01*
X197047Y140998D01*
X197463Y140376D01*
X198085Y139960D01*
X198819Y139814D01*
X199553Y139960D01*
X200175Y140376D01*
X200196Y140407D01*
X217127D01*
X217148Y140376D01*
X217770Y139960D01*
X218504Y139814D01*
X219238Y139960D01*
X219860Y140376D01*
X219881Y140407D01*
X244727D01*
X247075Y138059D01*
X247505Y137771D01*
X248012Y137671D01*
X250678D01*
Y136800D01*
X261527D01*
Y139316D01*
X262027Y139584D01*
X262060Y139562D01*
Y137402D01*
X262161Y136894D01*
X262448Y136464D01*
X265854Y133059D01*
X266032Y132939D01*
Y131800D01*
X276881D01*
Y136192D01*
X266859D01*
X266787Y136300D01*
X267054Y136800D01*
X276881D01*
Y141192D01*
X271136D01*
X266508Y145819D01*
X266078Y146107D01*
X265571Y146208D01*
X253089D01*
X252822Y146708D01*
X252953Y146904D01*
X253099Y147638D01*
X252953Y148372D01*
X252784Y148625D01*
Y197755D01*
X252683Y198262D01*
X252395Y198692D01*
X242276Y208811D01*
X241846Y209099D01*
X241339Y209200D01*
X239959D01*
X239939Y209230D01*
X239317Y209646D01*
X238583Y209792D01*
X237849Y209646D01*
X237227Y209230D01*
X236811Y208608D01*
X236665Y207874D01*
X236811Y207140D01*
X237227Y206518D01*
X237849Y206102D01*
X238583Y205956D01*
X239317Y206102D01*
X239939Y206518D01*
X239959Y206548D01*
X240789D01*
X250132Y197205D01*
Y189064D01*
X249632Y188857D01*
X239914Y198575D01*
X239753Y198683D01*
X239545Y198994D01*
X238923Y199410D01*
X238189Y199556D01*
X237455Y199410D01*
X236833Y198994D01*
X236417Y198372D01*
X236271Y197638D01*
X236417Y196904D01*
X236833Y196282D01*
X237455Y195866D01*
X238189Y195720D01*
X238881Y195858D01*
X247651Y187089D01*
Y153581D01*
X247620Y153561D01*
X247204Y152939D01*
X247058Y152205D01*
X247204Y151471D01*
X247620Y150848D01*
X248242Y150433D01*
X248976Y150287D01*
X249632Y150417D01*
X250132Y150185D01*
Y149199D01*
X249825Y148994D01*
X249409Y148372D01*
X249291Y147779D01*
X248809Y147555D01*
X203179Y193184D01*
X203213Y193282D01*
X203787Y193414D01*
X223336Y173866D01*
X223766Y173579D01*
X224273Y173478D01*
X234450D01*
X234471Y173447D01*
X235093Y173031D01*
X235827Y172885D01*
X236561Y173031D01*
X237183Y173447D01*
X237599Y174069D01*
X237745Y174803D01*
X237599Y175537D01*
X237183Y176159D01*
X236561Y176575D01*
X235827Y176721D01*
X235093Y176575D01*
X234471Y176159D01*
X234450Y176129D01*
X224822D01*
X205048Y195903D01*
X204985Y196220D01*
X204698Y196650D01*
X189781Y211567D01*
X189351Y211855D01*
X188843Y211955D01*
X158857D01*
X158837Y211986D01*
X158214Y212402D01*
X157480Y212548D01*
D02*
G37*
%LPD*%
D29*
X263386Y137402D02*
Y140551D01*
Y137402D02*
X266791Y133996D01*
X238583Y207874D02*
X241339D01*
X251458Y197755D01*
Y147915D02*
Y197755D01*
X251181Y147638D02*
X251458Y147915D01*
X238976Y197638D02*
X248976Y187638D01*
Y152205D02*
Y187638D01*
X266791Y133996D02*
X271457D01*
X175591Y157087D02*
Y164173D01*
X128347Y211417D02*
X175591Y164173D01*
X225715Y124177D02*
X233774Y132236D01*
X225715Y124177D02*
X226305Y124768D01*
X222917Y121379D02*
X225715Y124177D01*
X222835Y124409D02*
X235598Y137173D01*
X233774Y132236D02*
X236221D01*
X235598Y137173D02*
X236221D01*
X151694Y121379D02*
X222917D01*
X151575Y121260D02*
X151694Y121379D01*
X222835Y124409D02*
X225394Y126969D01*
X154331Y124409D02*
X222835D01*
X132874Y164468D02*
Y179527D01*
Y164468D02*
X135827Y161516D01*
Y161189D02*
Y161516D01*
X201575Y186909D02*
X204429D01*
X201279Y193209D02*
Y194685D01*
X265571Y144882D02*
X271457Y138996D01*
X261256Y142681D02*
X263386Y140551D01*
X201279Y193209D02*
X249606Y144882D01*
X265571D01*
X204429Y186909D02*
X248657Y142681D01*
X261256D01*
D30*
X269291Y150000D02*
Y161811D01*
X203761Y195316D02*
X224273Y174803D01*
X235827D01*
X157480Y210630D02*
X188843D01*
X203761Y195713D01*
Y195316D02*
Y195713D01*
X191339Y118898D02*
X256004D01*
X256102Y118996D01*
X258268Y118209D02*
X263779D01*
X257480Y118996D02*
X258268Y118209D01*
X256102Y118996D02*
X257480D01*
X263779Y118209D02*
X270669D01*
X271457Y118996D01*
X198819Y141732D02*
X218504D01*
X248012Y138996D02*
X256102D01*
X271457Y128996D02*
X278091D01*
X282283Y124803D01*
X219291Y113780D02*
X278347D01*
X282283Y117717D01*
Y124803D01*
X245276Y141732D02*
X248012Y138996D01*
X218504Y141732D02*
X245276D01*
D32*
X264411Y196563D02*
D03*
X254569Y206405D02*
D03*
X264411D02*
D03*
X195513Y196563D02*
D03*
Y186721D02*
D03*
Y176878D02*
D03*
X185671Y167035D02*
D03*
Y176878D02*
D03*
Y186721D02*
D03*
Y196563D02*
D03*
Y206405D02*
D03*
X175828D02*
D03*
Y196563D02*
D03*
Y186721D02*
D03*
Y176878D02*
D03*
X165986Y167035D02*
D03*
Y206405D02*
D03*
Y196563D02*
D03*
Y186721D02*
D03*
X146301Y147350D02*
D03*
X126616Y137508D02*
D03*
X116773Y127665D02*
D03*
X106931D02*
D03*
Y137508D02*
D03*
Y157193D02*
D03*
Y176878D02*
D03*
X116773Y186721D02*
D03*
Y206405D02*
D03*
X234646Y123228D02*
D03*
X280709Y109449D02*
D03*
X261024D02*
D03*
X270866D02*
D03*
X269291Y161811D02*
D03*
Y150000D02*
D03*
X238189Y197638D02*
D03*
X238583Y207874D02*
D03*
X251181Y147638D02*
D03*
X248976Y152205D02*
D03*
X235827Y174803D02*
D03*
X157480Y210630D02*
D03*
X175591Y157087D02*
D03*
X128347Y211417D02*
D03*
X236221Y132236D02*
D03*
Y137173D02*
D03*
X263779Y118209D02*
D03*
X191339Y118898D02*
D03*
X154331Y124409D02*
D03*
X151575Y121260D02*
D03*
X135827Y161516D02*
D03*
X201279Y194685D02*
D03*
X201575Y186909D02*
D03*
X132874Y179527D02*
D03*
X198819Y141732D02*
D03*
X219291Y113780D02*
D03*
X218504Y141732D02*
D03*
D33*
X105512Y218307D02*
D03*
X110433Y228150D02*
D03*
X128149D02*
D03*
X133071Y218307D02*
D03*
D34*
X163976Y114906D02*
D03*
X144291D02*
D03*
D35*
X141535Y104276D02*
D03*
X166732D02*
D03*
D36*
X271457Y138996D02*
D03*
Y133996D02*
D03*
Y128996D02*
D03*
Y123996D02*
D03*
Y118996D02*
D03*
X256102Y138996D02*
D03*
Y133996D02*
D03*
Y128996D02*
D03*
Y123996D02*
D03*
Y118996D02*
D03*
M02*
