G04 Layer_Color=13813960*
%FSLAX25Y25*%
%MOIN*%
G70*
G01*
G75*
G36*
X274921Y142874D02*
X274338D01*
Y144412D01*
X273813D01*
X273653Y144420D01*
X273500Y144434D01*
X273369Y144449D01*
X273259Y144478D01*
X273164Y144500D01*
X273099Y144514D01*
X273055Y144529D01*
X273040Y144536D01*
X272924Y144587D01*
X272822Y144638D01*
X272734Y144696D01*
X272654Y144748D01*
X272596Y144791D01*
X272552Y144828D01*
X272523Y144857D01*
X272516Y144864D01*
X272443Y144944D01*
X272377Y145025D01*
X272326Y145097D01*
X272282Y145170D01*
X272253Y145229D01*
X272224Y145280D01*
X272217Y145309D01*
X272209Y145324D01*
X272173Y145418D01*
X272151Y145513D01*
X272129Y145608D01*
X272122Y145688D01*
X272115Y145754D01*
X272107Y145805D01*
Y145834D01*
Y145848D01*
X272115Y145980D01*
X272129Y146096D01*
X272151Y146198D01*
X272173Y146286D01*
X272195Y146359D01*
X272217Y146410D01*
X272231Y146439D01*
X272238Y146453D01*
X272290Y146541D01*
X272348Y146621D01*
X272406Y146687D01*
X272464Y146745D01*
X272516Y146796D01*
X272559Y146825D01*
X272588Y146847D01*
X272596Y146854D01*
X272683Y146913D01*
X272771Y146956D01*
X272851Y147000D01*
X272931Y147029D01*
X273004Y147058D01*
X273055Y147073D01*
X273092Y147088D01*
X273106D01*
X273325Y147131D01*
X273427Y147146D01*
X273522Y147153D01*
X273602Y147160D01*
X274921D01*
Y142874D01*
D02*
G37*
G36*
X270110Y147219D02*
X270248Y147204D01*
X270372Y147175D01*
X270482Y147146D01*
X270569Y147117D01*
X270635Y147088D01*
X270678Y147073D01*
X270686Y147066D01*
X270693D01*
X270810Y147007D01*
X270912Y146934D01*
X271006Y146869D01*
X271087Y146803D01*
X271152Y146745D01*
X271203Y146701D01*
X271233Y146672D01*
X271247Y146658D01*
X270934Y146286D01*
X270861Y146351D01*
X270795Y146417D01*
X270722Y146468D01*
X270664Y146512D01*
X270606Y146548D01*
X270562Y146577D01*
X270533Y146592D01*
X270525Y146599D01*
X270438Y146643D01*
X270350Y146672D01*
X270270Y146694D01*
X270190Y146709D01*
X270124Y146716D01*
X270073Y146723D01*
X269957D01*
X269891Y146716D01*
X269840Y146701D01*
X269789Y146694D01*
X269745Y146679D01*
X269716Y146665D01*
X269702Y146658D01*
X269694D01*
X269600Y146599D01*
X269519Y146548D01*
X269497Y146519D01*
X269476Y146504D01*
X269468Y146490D01*
X269461Y146483D01*
X269403Y146395D01*
X269359Y146315D01*
X269344Y146278D01*
X269337Y146249D01*
X269330Y146235D01*
Y146227D01*
X269301Y146125D01*
X269293Y146023D01*
X269286Y145987D01*
Y145958D01*
Y145936D01*
Y145929D01*
X269293Y145812D01*
X269301Y145754D01*
Y145710D01*
X269308Y145673D01*
X269315Y145644D01*
X269322Y145622D01*
Y145615D01*
X269352Y145506D01*
X269395Y145411D01*
X269417Y145367D01*
X269439Y145338D01*
X269446Y145316D01*
X269454Y145309D01*
X269534Y145185D01*
X269578Y145127D01*
X269621Y145068D01*
X269658Y145025D01*
X269687Y144988D01*
X269709Y144959D01*
X269716Y144952D01*
X269782Y144879D01*
X269855Y144799D01*
X269928Y144718D01*
X270001Y144646D01*
X270066Y144580D01*
X270117Y144529D01*
X270146Y144500D01*
X270161Y144485D01*
X271262Y143384D01*
Y142874D01*
X268433D01*
Y143421D01*
X270518D01*
X269745Y144179D01*
X269643Y144274D01*
X269556Y144369D01*
X269476Y144449D01*
X269403Y144522D01*
X269352Y144580D01*
X269308Y144624D01*
X269279Y144653D01*
X269271Y144660D01*
X269199Y144740D01*
X269133Y144820D01*
X269075Y144893D01*
X269024Y144959D01*
X268987Y145017D01*
X268958Y145054D01*
X268944Y145083D01*
X268936Y145090D01*
X268849Y145243D01*
X268812Y145316D01*
X268783Y145382D01*
X268761Y145433D01*
X268747Y145476D01*
X268732Y145506D01*
Y145513D01*
X268696Y145673D01*
X268681Y145754D01*
X268674Y145819D01*
X268666Y145885D01*
Y145929D01*
Y145965D01*
Y145972D01*
X268674Y146082D01*
X268681Y146176D01*
X268696Y146264D01*
X268710Y146344D01*
X268732Y146410D01*
X268747Y146453D01*
X268754Y146490D01*
X268761Y146497D01*
X268798Y146585D01*
X268841Y146658D01*
X268885Y146723D01*
X268929Y146782D01*
X268973Y146825D01*
X269002Y146862D01*
X269024Y146883D01*
X269031Y146891D01*
X269162Y147000D01*
X269228Y147037D01*
X269293Y147073D01*
X269352Y147102D01*
X269395Y147124D01*
X269425Y147131D01*
X269432Y147139D01*
X269519Y147168D01*
X269614Y147190D01*
X269702Y147204D01*
X269782Y147219D01*
X269855D01*
X269906Y147226D01*
X269957D01*
X270110Y147219D01*
D02*
G37*
%LPC*%
G36*
X274338Y146672D02*
X273748D01*
X273573Y146665D01*
X273419Y146636D01*
X273296Y146599D01*
X273186Y146563D01*
X273099Y146519D01*
X273040Y146483D01*
X273004Y146453D01*
X272989Y146446D01*
X272895Y146359D01*
X272829Y146257D01*
X272778Y146154D01*
X272749Y146053D01*
X272727Y145958D01*
X272720Y145885D01*
X272712Y145856D01*
Y145834D01*
Y145826D01*
Y145819D01*
X272727Y145659D01*
X272756Y145520D01*
X272800Y145404D01*
X272851Y145302D01*
X272909Y145229D01*
X272953Y145178D01*
X272982Y145141D01*
X272997Y145134D01*
X273113Y145061D01*
X273245Y145003D01*
X273376Y144966D01*
X273507Y144937D01*
X273616Y144922D01*
X273667Y144915D01*
X273711D01*
X273748Y144908D01*
X274338D01*
Y146672D01*
D02*
G37*
%LPD*%
M02*
