G04 Layer_Physical_Order=1*
G04 Layer_Color=25308*
%FSLAX25Y25*%
%MOIN*%
G70*
G01*
G75*
%ADD10R,0.03150X0.03937*%
%ADD11R,0.06102X0.05118*%
%ADD12R,0.04134X0.03937*%
%ADD13R,0.07874X0.08661*%
%ADD14R,0.02756X0.04724*%
%ADD15R,0.01575X0.05315*%
%ADD16R,0.05906X0.07480*%
%ADD17R,0.09500X0.06300*%
%ADD18R,0.03740X0.04134*%
%ADD19R,0.05906X0.07874*%
%ADD20R,0.14961X0.07874*%
%ADD21R,0.08661X0.07874*%
%ADD22R,0.05118X0.05118*%
%ADD23O,0.07480X0.02362*%
%ADD24R,0.03150X0.03543*%
%ADD25R,0.03543X0.03150*%
%ADD26R,0.10827X0.03937*%
%ADD27R,0.07874X0.03937*%
%ADD28R,0.03937X0.07874*%
%ADD29C,0.01201*%
%ADD30C,0.01200*%
%ADD31C,0.01500*%
%ADD32C,0.02362*%
%ADD33C,0.05906*%
%ADD34C,0.05709*%
%ADD35R,0.07087X0.07480*%
G36*
X143701Y214567D02*
X285433D01*
Y100394D01*
X171276D01*
Y103776D01*
X166732D01*
Y104276D01*
X166232D01*
Y109016D01*
X162189D01*
Y109016D01*
X162024D01*
Y109016D01*
X158571D01*
Y104276D01*
X157571D01*
Y109016D01*
X150697D01*
Y104276D01*
X149697D01*
Y109016D01*
X149196D01*
X148989Y109516D01*
X149953Y110480D01*
X150241Y110910D01*
X150342Y111417D01*
Y111548D01*
X157465D01*
Y111248D01*
X158752D01*
Y114906D01*
Y118563D01*
X157465D01*
Y118263D01*
X155682D01*
Y123050D01*
X155687Y123053D01*
X156103Y123676D01*
X156249Y124409D01*
X156103Y125143D01*
X155687Y125766D01*
X155146Y126127D01*
X155178Y126491D01*
X155229Y126627D01*
X156299D01*
X156806Y126728D01*
X157237Y127015D01*
X159836Y129615D01*
X167629D01*
Y129974D01*
X173906D01*
Y126662D01*
X176975D01*
X185677Y117960D01*
X186107Y117673D01*
X186614Y117572D01*
X189962D01*
X189982Y117541D01*
X190605Y117126D01*
X191339Y116980D01*
X192073Y117126D01*
X192695Y117541D01*
X193111Y118164D01*
X193256Y118898D01*
X193250Y118932D01*
X193710Y119178D01*
X194338Y118551D01*
X204605Y108284D01*
X204414Y107822D01*
X194794D01*
Y111133D01*
X178434D01*
Y101859D01*
X194794D01*
Y105170D01*
X205205D01*
Y103237D01*
X215267D01*
Y112511D01*
X205205D01*
Y112087D01*
X204744Y111895D01*
X197598Y119041D01*
Y119541D01*
X206687Y128631D01*
X209558D01*
Y133968D01*
X208609D01*
Y139064D01*
X209558D01*
Y144401D01*
X205009D01*
Y139064D01*
X205958D01*
Y133968D01*
X205009D01*
Y130703D01*
X195473Y121166D01*
X190427Y126212D01*
X190267Y126662D01*
X190267D01*
X190267Y126662D01*
Y135936D01*
X187940D01*
Y138189D01*
X187839Y138696D01*
X187552Y139127D01*
X181384Y145295D01*
X181575Y145757D01*
X184259D01*
X189220Y140795D01*
X189650Y140508D01*
X190157Y140407D01*
X197442D01*
X197463Y140376D01*
X198085Y139960D01*
X198819Y139814D01*
X199553Y139960D01*
X200175Y140376D01*
X200591Y140998D01*
X200737Y141732D01*
X200591Y142466D01*
X200175Y143088D01*
X199553Y143504D01*
X198819Y143650D01*
X198085Y143504D01*
X197463Y143088D01*
X197442Y143058D01*
X190707D01*
X188393Y145372D01*
X188574Y145588D01*
X188646Y145675D01*
X188676Y145710D01*
X188694Y145732D01*
X188699Y145738D01*
X189065Y145757D01*
X189152Y145757D01*
X189168D01*
X189168D01*
X194007D01*
Y155031D01*
X188670D01*
Y146255D01*
Y146255D01*
Y146238D01*
X188670Y146151D01*
X188652Y145786D01*
X188645Y145780D01*
X188624Y145763D01*
X188588Y145733D01*
X188502Y145660D01*
X188285Y145479D01*
X186133Y147631D01*
Y155031D01*
X180853D01*
Y159304D01*
X190157D01*
X190665Y159405D01*
X191095Y159692D01*
X203956Y172554D01*
X204418Y172362D01*
Y168591D01*
X213692D01*
Y168753D01*
X218001D01*
Y165835D01*
X222550D01*
Y171172D01*
X219405D01*
X219208Y171304D01*
X218701Y171405D01*
X213692D01*
Y173871D01*
X222286D01*
X224484Y171672D01*
X224277Y171172D01*
X223906D01*
Y165835D01*
X228456D01*
Y171172D01*
X227507D01*
Y171850D01*
X227406Y172358D01*
X227119Y172788D01*
X224808Y175098D01*
X226175Y176465D01*
X228456D01*
Y181802D01*
X228817Y182139D01*
X269530D01*
X272922Y178746D01*
Y176268D01*
X277472D01*
Y181212D01*
X274207D01*
X271016Y184402D01*
X270586Y184689D01*
X270079Y184790D01*
X221602D01*
Y185422D01*
X222550D01*
Y190759D01*
X218001D01*
Y185422D01*
X218950D01*
Y183465D01*
X218989Y183268D01*
X218950Y183071D01*
Y181802D01*
X218001D01*
Y180460D01*
X213692D01*
Y181802D01*
X204418D01*
Y176465D01*
X204418Y176465D01*
X204418D01*
X204312Y176442D01*
X204217Y176422D01*
X203997Y176275D01*
X203997Y176275D01*
X203989Y176270D01*
X203787Y176134D01*
X189608Y161956D01*
X159449D01*
X158941Y161855D01*
X158511Y161567D01*
X155103Y158159D01*
X154637Y158180D01*
Y158180D01*
X154637Y158180D01*
X145363D01*
Y156838D01*
X141277D01*
Y159362D01*
X137153D01*
Y160139D01*
X137183Y160160D01*
X137599Y160782D01*
X137745Y161516D01*
X137599Y162250D01*
X137336Y162643D01*
X137603Y163143D01*
X145363D01*
Y160717D01*
X154637D01*
Y166054D01*
X145363D01*
Y165794D01*
X131791D01*
X131284Y165693D01*
X130854Y165406D01*
X124751Y159304D01*
X124464Y158873D01*
X124363Y158366D01*
Y149860D01*
X122128Y147625D01*
X112314D01*
Y148968D01*
X100394D01*
Y163277D01*
X100747Y163631D01*
X112314D01*
Y164973D01*
X119843D01*
X120350Y165074D01*
X120780Y165362D01*
X127911Y172493D01*
X130639D01*
X130846Y171993D01*
X117821Y158968D01*
X110914D01*
Y153631D01*
X123141D01*
Y158968D01*
X122224D01*
X122033Y159430D01*
X132537Y169934D01*
X145363D01*
Y168591D01*
X154637D01*
Y173928D01*
X145363D01*
Y172586D01*
X140522D01*
X140315Y173086D01*
X144863Y177634D01*
X145363Y177427D01*
Y176465D01*
X154637D01*
Y181802D01*
X145999D01*
X145792Y182302D01*
X147829Y184339D01*
X154637D01*
Y189676D01*
X145900D01*
X145693Y190176D01*
X147730Y192213D01*
X154637D01*
Y197550D01*
X145363D01*
Y193596D01*
X139671Y187905D01*
X136603D01*
Y182568D01*
X141153D01*
Y185636D01*
X144863Y189346D01*
X145363Y189139D01*
Y185624D01*
X137364Y177625D01*
X134313D01*
X134161Y178125D01*
X134230Y178171D01*
X134646Y178794D01*
X134792Y179527D01*
X134646Y180261D01*
X134230Y180884D01*
X134200Y180904D01*
Y182568D01*
X135247D01*
Y187905D01*
X134200D01*
Y192312D01*
X135149D01*
Y197649D01*
X132081D01*
X126823Y202906D01*
X126393Y203193D01*
X125886Y203294D01*
X115903D01*
X112314Y206884D01*
Y208968D01*
X111759D01*
Y224409D01*
X121880D01*
X122072Y223948D01*
X121700Y223576D01*
X121413Y223146D01*
X121312Y222639D01*
Y219204D01*
X120363D01*
Y213867D01*
X124022D01*
X126436Y211453D01*
X126428Y211417D01*
X126575Y210683D01*
X126990Y210061D01*
X127612Y209645D01*
X128347Y209499D01*
X129080Y209645D01*
X129703Y210061D01*
X130118Y210683D01*
X130264Y211417D01*
X130118Y212151D01*
X129703Y212773D01*
X129080Y213189D01*
X128347Y213335D01*
X128311Y213328D01*
X124913Y216726D01*
Y219204D01*
X123964D01*
Y222089D01*
X126284Y224410D01*
X133858D01*
X143701Y214567D01*
D02*
G37*
G36*
X114417Y201031D02*
X114847Y200744D01*
X115354Y200643D01*
X125337D01*
X130599Y195380D01*
Y192312D01*
X131548D01*
Y187905D01*
X130698D01*
Y182568D01*
X131548D01*
Y180904D01*
X131518Y180884D01*
X131102Y180261D01*
X130956Y179527D01*
X131102Y178794D01*
X131518Y178171D01*
X131587Y178125D01*
X131435Y177625D01*
X123141D01*
Y178968D01*
X110914D01*
Y173631D01*
X123141D01*
Y174973D01*
X125935D01*
X126142Y174473D01*
X119293Y167625D01*
X112314D01*
Y168968D01*
X100394D01*
Y183277D01*
X100747Y183631D01*
X112314D01*
Y188968D01*
X100394D01*
X100394Y203277D01*
X100747Y203631D01*
X111817D01*
X114417Y201031D01*
D02*
G37*
G36*
X134317Y162643D02*
X134055Y162250D01*
X133909Y161516D01*
X134055Y160782D01*
X134470Y160160D01*
X134501Y160139D01*
Y159362D01*
X130377D01*
Y151662D01*
X141277D01*
Y154186D01*
X145363D01*
Y152843D01*
X154637D01*
Y154247D01*
X154838Y154287D01*
X155268Y154574D01*
X159998Y159304D01*
X174692D01*
X174741Y159172D01*
X174775Y158804D01*
X174234Y158443D01*
X173819Y157821D01*
X173673Y157087D01*
X173819Y156353D01*
X174234Y155730D01*
X174265Y155710D01*
Y155031D01*
X172922D01*
Y145757D01*
X178202D01*
Y145276D01*
X178303Y144768D01*
X178590Y144338D01*
X185288Y137640D01*
Y135936D01*
X182961D01*
Y126662D01*
X186226D01*
X191619Y121270D01*
X191373Y120809D01*
X191339Y120816D01*
X190605Y120670D01*
X189982Y120254D01*
X189962Y120223D01*
X187163D01*
X181190Y126196D01*
X181212Y126662D01*
X181212D01*
X181212Y126662D01*
Y135936D01*
X173906D01*
Y132625D01*
X167629D01*
Y139676D01*
X158355D01*
Y131883D01*
X155831Y129359D01*
X155331Y129473D01*
X155331Y129778D01*
Y134146D01*
X145457D01*
Y129778D01*
X145457Y129315D01*
X144972Y129278D01*
X133071D01*
X132564Y129177D01*
X132409Y129074D01*
X131999Y128850D01*
X131999D01*
X131999Y128850D01*
X131999Y128850D01*
X127843D01*
Y122725D01*
X131999D01*
Y125007D01*
X133620Y126627D01*
X153433D01*
X153483Y126491D01*
X153516Y126127D01*
X152974Y125766D01*
X152559Y125143D01*
X152413Y124409D01*
X152559Y123676D01*
X152812Y123297D01*
X152451Y122937D01*
X152309Y123032D01*
X151575Y123178D01*
X150841Y123032D01*
X150219Y122616D01*
X149803Y121994D01*
X149657Y121260D01*
X149803Y120526D01*
X150219Y119904D01*
X150249Y119883D01*
Y118263D01*
X147528D01*
Y117796D01*
X147214Y117689D01*
X147028Y117664D01*
X146235Y118272D01*
X145298Y118661D01*
X144791Y118727D01*
Y114906D01*
X144291D01*
Y114406D01*
X140470D01*
X140536Y113899D01*
X140925Y112962D01*
X141542Y112157D01*
X141700Y112036D01*
X141539Y111562D01*
X131999D01*
Y114283D01*
X127843D01*
Y108158D01*
X131999D01*
Y108910D01*
X136992D01*
Y104776D01*
X141535D01*
Y103776D01*
X136992D01*
Y100394D01*
X100394D01*
X100394Y143277D01*
X100747Y143631D01*
X112314D01*
Y144973D01*
X122677D01*
X123185Y145074D01*
X123615Y145362D01*
X126627Y148373D01*
X126914Y148804D01*
X127015Y149311D01*
Y157817D01*
X132341Y163143D01*
X134050D01*
X134317Y162643D01*
D02*
G37*
G36*
X109107Y224056D02*
Y220936D01*
X108607Y220766D01*
X108331Y221127D01*
X107505Y221760D01*
X106544Y222158D01*
X106012Y222228D01*
Y218307D01*
Y214386D01*
X106544Y214456D01*
X107505Y214855D01*
X108331Y215488D01*
X108607Y215848D01*
X109107Y215679D01*
Y208968D01*
X100394D01*
Y224409D01*
X108754D01*
X109107Y224056D01*
D02*
G37*
%LPC*%
G36*
X135327Y147756D02*
X130077D01*
Y144106D01*
X135327D01*
Y147756D01*
D02*
G37*
G36*
X145801Y146850D02*
X144176D01*
X144246Y146499D01*
X144728Y145778D01*
X145450Y145296D01*
X145801Y145226D01*
Y146850D01*
D02*
G37*
G36*
X141577Y147756D02*
X136327D01*
Y144106D01*
X141577D01*
Y147756D01*
D02*
G37*
G36*
X227181Y146374D02*
X227145D01*
X227074Y146374D01*
X224811D01*
Y143307D01*
Y140240D01*
X227074D01*
X227145Y140240D01*
X227181D01*
X227557Y140540D01*
X227681Y140540D01*
X232590D01*
Y140726D01*
X238968D01*
X239408Y140433D01*
X240142Y140287D01*
X245260D01*
X245994Y140433D01*
X246616Y140849D01*
X247032Y141471D01*
X247178Y142205D01*
X247032Y142939D01*
X246616Y143561D01*
X245994Y143977D01*
X245260Y144123D01*
X240142D01*
X239408Y143977D01*
X238968Y143683D01*
X232590D01*
Y146074D01*
X227681D01*
X227557Y146074D01*
X227181Y146374D01*
D02*
G37*
G36*
X269291Y151918D02*
X268557Y151772D01*
X267935Y151356D01*
X267519Y150734D01*
X267373Y150000D01*
X267519Y149266D01*
X267935Y148644D01*
X267966Y148623D01*
Y146612D01*
X264997Y143643D01*
X264498Y143977D01*
X263764Y144123D01*
X258646D01*
X257912Y143977D01*
X257290Y143561D01*
X256874Y142939D01*
X256728Y142205D01*
X256874Y141471D01*
X257290Y140849D01*
X257912Y140433D01*
X258646Y140287D01*
X263764D01*
X264498Y140433D01*
X265120Y140849D01*
X265141Y140879D01*
X265433D01*
X265940Y140980D01*
X266370Y141268D01*
X270229Y145126D01*
X270516Y145556D01*
X270617Y146063D01*
Y148623D01*
X270648Y148644D01*
X271063Y149266D01*
X271209Y150000D01*
X271063Y150734D01*
X270648Y151356D01*
X270025Y151772D01*
X269291Y151918D01*
D02*
G37*
G36*
X223811Y146374D02*
X221441D01*
Y143807D01*
X223811D01*
Y146374D01*
D02*
G37*
G36*
X148425Y146850D02*
X146801D01*
Y145226D01*
X147152Y145296D01*
X147873Y145778D01*
X148355Y146499D01*
X148425Y146850D01*
D02*
G37*
G36*
X145801Y149475D02*
X145450Y149405D01*
X144728Y148923D01*
X144246Y148201D01*
X144176Y147850D01*
X145801D01*
Y149475D01*
D02*
G37*
G36*
X146801D02*
Y147850D01*
X148425D01*
X148355Y148201D01*
X147873Y148923D01*
X147152Y149405D01*
X146801Y149475D01*
D02*
G37*
G36*
X251181Y149556D02*
X250447Y149410D01*
X249825Y148994D01*
X249515Y148531D01*
X246636D01*
X246616Y148561D01*
X245994Y148977D01*
X245260Y149123D01*
X240142D01*
X239408Y148977D01*
X238786Y148561D01*
X238370Y147939D01*
X238224Y147205D01*
X238370Y146471D01*
X238786Y145849D01*
X239408Y145433D01*
X240142Y145287D01*
X245260D01*
X245994Y145433D01*
X246616Y145849D01*
X246636Y145879D01*
X250428D01*
X250447Y145866D01*
X251181Y145720D01*
X251915Y145866D01*
X252537Y146282D01*
X252953Y146904D01*
X253099Y147638D01*
X252953Y148372D01*
X252537Y148994D01*
X251915Y149410D01*
X251181Y149556D01*
D02*
G37*
G36*
X162511Y155031D02*
X157174D01*
Y145757D01*
X162511D01*
Y155031D01*
D02*
G37*
G36*
X170385D02*
X165048D01*
Y145757D01*
X170385D01*
Y155031D01*
D02*
G37*
G36*
X201881D02*
X196544D01*
Y145757D01*
X201881D01*
Y155031D01*
D02*
G37*
G36*
X223811Y142807D02*
X221441D01*
Y140240D01*
X223811D01*
Y142807D01*
D02*
G37*
G36*
X126116Y137008D02*
X124491D01*
X124561Y136657D01*
X125043Y135935D01*
X125765Y135453D01*
X126116Y135383D01*
Y137008D01*
D02*
G37*
G36*
X128740D02*
X127116D01*
Y135383D01*
X127467Y135453D01*
X128188Y135935D01*
X128670Y136657D01*
X128740Y137008D01*
D02*
G37*
G36*
X106431Y139632D02*
X106080Y139562D01*
X105358Y139080D01*
X104876Y138359D01*
X104806Y138008D01*
X106431D01*
Y139632D01*
D02*
G37*
G36*
X109055Y137008D02*
X107431D01*
Y135383D01*
X107782Y135453D01*
X108503Y135935D01*
X108985Y136657D01*
X109055Y137008D01*
D02*
G37*
G36*
X155331Y139976D02*
X150894D01*
Y135146D01*
X155331D01*
Y139976D01*
D02*
G37*
G36*
X263764Y139123D02*
X258646D01*
X257912Y138977D01*
X257290Y138561D01*
X256874Y137939D01*
X256728Y137205D01*
X256874Y136471D01*
X257290Y135848D01*
X257912Y135433D01*
X258646Y135287D01*
X263764D01*
X264498Y135433D01*
X265120Y135848D01*
X265536Y136471D01*
X265682Y137205D01*
X265536Y137939D01*
X265120Y138561D01*
X264498Y138977D01*
X263764Y139123D01*
D02*
G37*
G36*
X106431Y137008D02*
X104806D01*
X104876Y136657D01*
X105358Y135935D01*
X106080Y135453D01*
X106431Y135383D01*
Y137008D01*
D02*
G37*
G36*
X135327Y143106D02*
X130077D01*
Y139456D01*
X135327D01*
Y143106D01*
D02*
G37*
G36*
X141577D02*
X136327D01*
Y139456D01*
X141577D01*
Y143106D01*
D02*
G37*
G36*
X215464Y144401D02*
X210914D01*
Y139064D01*
X215464D01*
Y140407D01*
X217127D01*
X217148Y140376D01*
X217770Y139960D01*
X218504Y139814D01*
X219238Y139960D01*
X219860Y140376D01*
X220276Y140998D01*
X220422Y141732D01*
X220276Y142466D01*
X219860Y143088D01*
X219238Y143504D01*
X218504Y143650D01*
X217770Y143504D01*
X217148Y143088D01*
X217127Y143058D01*
X215464D01*
Y144401D01*
D02*
G37*
G36*
X245260Y139123D02*
X240142D01*
X239408Y138977D01*
X238786Y138561D01*
X238765Y138531D01*
X237575D01*
X236954Y138945D01*
X236221Y139091D01*
X235487Y138945D01*
X234864Y138529D01*
X234449Y137907D01*
X234302Y137173D01*
X234449Y136439D01*
X234864Y135817D01*
X235487Y135401D01*
X236221Y135255D01*
X236954Y135401D01*
X237577Y135817D01*
X237618Y135879D01*
X238765D01*
X238786Y135848D01*
X239408Y135433D01*
X240142Y135287D01*
X245260D01*
X245994Y135433D01*
X246616Y135848D01*
X247032Y136471D01*
X247178Y137205D01*
X247032Y137939D01*
X246616Y138561D01*
X245994Y138977D01*
X245260Y139123D01*
D02*
G37*
G36*
X107431Y139632D02*
Y138008D01*
X109055D01*
X108985Y138359D01*
X108503Y139080D01*
X107782Y139562D01*
X107431Y139632D01*
D02*
G37*
G36*
X126116D02*
X125765Y139562D01*
X125043Y139080D01*
X124561Y138359D01*
X124491Y138008D01*
X126116D01*
Y139632D01*
D02*
G37*
G36*
X127116D02*
Y138008D01*
X128740D01*
X128670Y138359D01*
X128188Y139080D01*
X127467Y139562D01*
X127116Y139632D01*
D02*
G37*
G36*
X242201Y159429D02*
X240142D01*
X239291Y159259D01*
X238569Y158777D01*
X238087Y158056D01*
X238017Y157705D01*
X242201D01*
Y159429D01*
D02*
G37*
G36*
X245260D02*
X243201D01*
Y157705D01*
X247384D01*
X247314Y158056D01*
X246832Y158777D01*
X246111Y159259D01*
X245260Y159429D01*
D02*
G37*
G36*
X276756Y159760D02*
X276487Y159460D01*
X271347D01*
Y158530D01*
X265141D01*
X265120Y158561D01*
X264498Y158977D01*
X263764Y159123D01*
X258646D01*
X257912Y158977D01*
X257290Y158561D01*
X256874Y157939D01*
X256728Y157205D01*
X256874Y156471D01*
X257290Y155849D01*
X257912Y155433D01*
X258646Y155287D01*
X263764D01*
X264498Y155433D01*
X265120Y155849D01*
X265141Y155879D01*
X271347D01*
Y153926D01*
X273805D01*
X275130Y152601D01*
Y144007D01*
X271741D01*
Y138182D01*
X266779Y133221D01*
X266492Y132791D01*
X266391Y132283D01*
Y122377D01*
X266153Y122202D01*
X266149Y122202D01*
X265638Y122426D01*
X265536Y122939D01*
X265120Y123561D01*
X264498Y123977D01*
X263764Y124123D01*
X258646D01*
X257912Y123977D01*
X257290Y123561D01*
X256874Y122939D01*
X256728Y122205D01*
X256874Y121471D01*
X257290Y120849D01*
X257912Y120433D01*
X258646Y120287D01*
X262604D01*
X262755Y119787D01*
X262423Y119565D01*
X262008Y118943D01*
X261862Y118209D01*
X262008Y117475D01*
X262423Y116852D01*
X263046Y116437D01*
X263779Y116291D01*
X264513Y116437D01*
X265136Y116852D01*
X265551Y117475D01*
X265586Y117649D01*
X268654Y120716D01*
X268941Y121146D01*
X269042Y121653D01*
Y131734D01*
X272041Y134733D01*
X281802D01*
Y144007D01*
X277781D01*
Y153150D01*
X277764Y153240D01*
X278081Y153626D01*
X279126D01*
Y156693D01*
Y159760D01*
X276756D01*
Y159760D01*
D02*
G37*
G36*
X107431Y159317D02*
Y157693D01*
X109055D01*
X108985Y158044D01*
X108503Y158765D01*
X107782Y159248D01*
X107431Y159317D01*
D02*
G37*
G36*
X282496Y159760D02*
X280126D01*
Y157193D01*
X282496D01*
Y159760D01*
D02*
G37*
G36*
X165486Y169160D02*
X165135Y169090D01*
X164413Y168608D01*
X163931Y167886D01*
X163862Y167535D01*
X165486D01*
Y169160D01*
D02*
G37*
G36*
X106431Y159317D02*
X106080Y159248D01*
X105358Y158765D01*
X104876Y158044D01*
X104806Y157693D01*
X106431D01*
Y159317D01*
D02*
G37*
G36*
X168110Y166535D02*
X166486D01*
Y164911D01*
X166837Y164981D01*
X167558Y165463D01*
X168040Y166184D01*
X168110Y166535D01*
D02*
G37*
G36*
X185171D02*
X183546D01*
X183616Y166184D01*
X184098Y165463D01*
X184820Y164981D01*
X185171Y164911D01*
Y166535D01*
D02*
G37*
G36*
X187795D02*
X186171D01*
Y164911D01*
X186522Y164981D01*
X187243Y165463D01*
X187725Y166184D01*
X187795Y166535D01*
D02*
G37*
G36*
X165486D02*
X163862D01*
X163931Y166184D01*
X164413Y165463D01*
X165135Y164981D01*
X165486Y164911D01*
Y166535D01*
D02*
G37*
G36*
X225681Y161630D02*
X223606D01*
Y159161D01*
X225681D01*
Y161630D01*
D02*
G37*
G36*
X228756D02*
X226681D01*
Y159161D01*
X228756D01*
Y161630D01*
D02*
G37*
G36*
X281212Y173338D02*
X276662D01*
Y170466D01*
X269820Y163624D01*
X269291Y163729D01*
X269255Y163722D01*
X265070Y167907D01*
Y171172D01*
X260521D01*
Y165835D01*
X263392D01*
X267381Y161847D01*
X267373Y161811D01*
X267519Y161077D01*
X267935Y160455D01*
X268557Y160039D01*
X269291Y159893D01*
X270025Y160039D01*
X270648Y160455D01*
X271063Y161077D01*
X271073Y161128D01*
X278340Y168394D01*
X281212D01*
Y173338D01*
D02*
G37*
G36*
X242201Y156705D02*
X238017D01*
X238087Y156354D01*
X238569Y155632D01*
X239291Y155150D01*
X240142Y154981D01*
X242201D01*
Y156705D01*
D02*
G37*
G36*
X247384D02*
X243201D01*
Y154981D01*
X245260D01*
X246111Y155150D01*
X246832Y155632D01*
X247314Y156354D01*
X247384Y156705D01*
D02*
G37*
G36*
X106431Y156693D02*
X104806D01*
X104876Y156342D01*
X105358Y155620D01*
X106080Y155138D01*
X106431Y155069D01*
Y156693D01*
D02*
G37*
G36*
X282496Y156193D02*
X280126D01*
Y153626D01*
X282496D01*
Y156193D01*
D02*
G37*
G36*
X263764Y154123D02*
X258646D01*
X257912Y153977D01*
X257290Y153561D01*
X256874Y152939D01*
X256728Y152205D01*
X256874Y151471D01*
X257290Y150848D01*
X257912Y150433D01*
X258646Y150287D01*
X263764D01*
X264498Y150433D01*
X265120Y150848D01*
X265536Y151471D01*
X265682Y152205D01*
X265536Y152939D01*
X265120Y153561D01*
X264498Y153977D01*
X263764Y154123D01*
D02*
G37*
G36*
X208555Y155012D02*
X204118D01*
Y152543D01*
X208555D01*
Y155012D01*
D02*
G37*
G36*
X213992D02*
X209555D01*
Y152543D01*
X213992D01*
Y155012D01*
D02*
G37*
G36*
X213692Y166054D02*
X204418D01*
Y160717D01*
X213692D01*
Y162060D01*
X215002D01*
X218001Y159061D01*
Y155993D01*
X222550D01*
Y161330D01*
X219482D01*
X216489Y164323D01*
X216059Y164611D01*
X215551Y164712D01*
X213692D01*
Y166054D01*
D02*
G37*
G36*
X208555Y158480D02*
X204118D01*
Y156012D01*
X208555D01*
Y158480D01*
D02*
G37*
G36*
X213992D02*
X209555D01*
Y156012D01*
X213992D01*
Y158480D01*
D02*
G37*
G36*
X228756Y158161D02*
X226681D01*
Y155693D01*
X228756D01*
Y158161D01*
D02*
G37*
G36*
X109055Y156693D02*
X107431D01*
Y155069D01*
X107782Y155138D01*
X108503Y155620D01*
X108985Y156342D01*
X109055Y156693D01*
D02*
G37*
G36*
X166486Y169160D02*
Y167535D01*
X168110D01*
X168040Y167886D01*
X167558Y168608D01*
X166837Y169090D01*
X166486Y169160D01*
D02*
G37*
G36*
X225681Y158161D02*
X223606D01*
Y155693D01*
X225681D01*
Y158161D01*
D02*
G37*
G36*
X167798Y114406D02*
X164476D01*
Y111084D01*
X164982Y111150D01*
X165920Y111539D01*
X166725Y112157D01*
X167343Y112962D01*
X167731Y113899D01*
X167798Y114406D01*
D02*
G37*
G36*
X215464Y133968D02*
X210914D01*
Y128631D01*
X215464D01*
Y129777D01*
X215986D01*
X217965Y127798D01*
Y115157D01*
X217935Y115136D01*
X217519Y114514D01*
X217373Y113780D01*
X217519Y113046D01*
X217935Y112424D01*
X218557Y112008D01*
X219291Y111862D01*
X220025Y112008D01*
X220647Y112424D01*
X221063Y113046D01*
X221209Y113780D01*
X221063Y114514D01*
X220647Y115136D01*
X220616Y115157D01*
Y128347D01*
X220515Y128854D01*
X220228Y129284D01*
X217473Y132040D01*
X217043Y132327D01*
X216535Y132428D01*
X215464D01*
Y133968D01*
D02*
G37*
G36*
X143791Y118727D02*
X143285Y118661D01*
X142348Y118272D01*
X141542Y117654D01*
X140925Y116849D01*
X140536Y115912D01*
X140470Y115405D01*
X143791D01*
Y118727D01*
D02*
G37*
G36*
X281209Y111573D02*
Y109949D01*
X282833D01*
X282763Y110300D01*
X282281Y111021D01*
X281560Y111503D01*
X281209Y111573D01*
D02*
G37*
G36*
X270366D02*
X270015Y111503D01*
X269294Y111021D01*
X268812Y110300D01*
X268742Y109949D01*
X270366D01*
Y111573D01*
D02*
G37*
G36*
X271366D02*
Y109949D01*
X272990D01*
X272921Y110300D01*
X272439Y111021D01*
X271717Y111503D01*
X271366Y111573D01*
D02*
G37*
G36*
X280209D02*
X279858Y111503D01*
X279136Y111021D01*
X278654Y110300D01*
X278584Y109949D01*
X280209D01*
Y111573D01*
D02*
G37*
G36*
X235252Y120291D02*
X232193D01*
Y117232D01*
X235252D01*
Y120291D01*
D02*
G37*
G36*
X163476Y118727D02*
X162970Y118661D01*
X162033Y118272D01*
X161539Y117894D01*
X161039Y118140D01*
Y118563D01*
X159752D01*
Y114906D01*
Y111248D01*
X161039D01*
Y111671D01*
X161539Y111917D01*
X162033Y111539D01*
X162970Y111150D01*
X163476Y111084D01*
Y114906D01*
Y118727D01*
D02*
G37*
G36*
X209736Y125409D02*
X204906D01*
Y120972D01*
X209736D01*
Y125409D01*
D02*
G37*
G36*
X245260Y124123D02*
X240142D01*
X239408Y123977D01*
X238786Y123561D01*
X238370Y122939D01*
X238224Y122205D01*
X238370Y121471D01*
X238786Y120849D01*
X239408Y120433D01*
X239817Y120352D01*
X239981Y119809D01*
X235714Y115542D01*
X235252Y115733D01*
Y116232D01*
X232193D01*
Y113173D01*
X232692D01*
X232884Y112711D01*
X231896Y111724D01*
X228559D01*
Y112024D01*
X225500D01*
Y108465D01*
Y104905D01*
X228559D01*
Y105206D01*
X234952D01*
Y111030D01*
X237697Y113775D01*
X241131Y110341D01*
Y106780D01*
X246236D01*
X246360D01*
X246736Y106480D01*
X246736D01*
X246921D01*
X247040Y106480D01*
X249303D01*
Y109449D01*
Y112417D01*
X247040D01*
X246921Y112417D01*
X246736D01*
X246736D01*
X246360Y112117D01*
X246236D01*
X243104D01*
X239572Y115650D01*
X243638Y119716D01*
X243926Y120146D01*
X243954Y120287D01*
X245260D01*
X245994Y120433D01*
X246616Y120849D01*
X247032Y121471D01*
X247178Y122205D01*
X247032Y122939D01*
X246616Y123561D01*
X245994Y123977D01*
X245260Y124123D01*
D02*
G37*
G36*
X164476Y118727D02*
Y115405D01*
X167798D01*
X167731Y115912D01*
X167343Y116849D01*
X166725Y117654D01*
X165920Y118272D01*
X164982Y118661D01*
X164476Y118727D01*
D02*
G37*
G36*
X209736Y119972D02*
X204906D01*
Y115535D01*
X209736D01*
Y119972D01*
D02*
G37*
G36*
X215567D02*
X210736D01*
Y115535D01*
X215567D01*
Y119972D01*
D02*
G37*
G36*
X260524Y108949D02*
X258899D01*
X258969Y108598D01*
X259451Y107876D01*
X260173Y107394D01*
X260524Y107325D01*
Y108949D01*
D02*
G37*
G36*
X263148D02*
X261524D01*
Y107325D01*
X261875Y107394D01*
X262596Y107876D01*
X263078Y108598D01*
X263148Y108949D01*
D02*
G37*
G36*
X270366D02*
X268742D01*
X268812Y108598D01*
X269294Y107876D01*
X270015Y107394D01*
X270366Y107325D01*
Y108949D01*
D02*
G37*
G36*
X252870Y108949D02*
X250303D01*
Y106480D01*
X252870D01*
Y108949D01*
D02*
G37*
G36*
X111614Y114905D02*
X110319Y114778D01*
X109074Y114400D01*
X107927Y113787D01*
X106921Y112961D01*
X106095Y111955D01*
X105482Y110808D01*
X105104Y109563D01*
X104977Y108268D01*
X105104Y106973D01*
X105482Y105728D01*
X106095Y104580D01*
X106921Y103574D01*
X107927Y102749D01*
X109074Y102136D01*
X110319Y101758D01*
X111614Y101630D01*
X112909Y101758D01*
X114154Y102136D01*
X115302Y102749D01*
X116308Y103574D01*
X117133Y104580D01*
X117746Y105728D01*
X118124Y106973D01*
X118252Y108268D01*
X118124Y109563D01*
X117746Y110808D01*
X117133Y111955D01*
X116308Y112961D01*
X115302Y113787D01*
X114154Y114400D01*
X112909Y114778D01*
X111614Y114905D01*
D02*
G37*
G36*
X171276Y109016D02*
X167232D01*
Y104776D01*
X171276D01*
Y109016D01*
D02*
G37*
G36*
X224500Y107965D02*
X221441D01*
Y104905D01*
X224500D01*
Y107965D01*
D02*
G37*
G36*
X250303Y112417D02*
Y109949D01*
X252870D01*
Y112417D01*
X250303D01*
D02*
G37*
G36*
X260524Y111573D02*
X260173Y111503D01*
X259451Y111021D01*
X258969Y110300D01*
X258899Y109949D01*
X260524D01*
Y111573D01*
D02*
G37*
G36*
X261524D02*
Y109949D01*
X263148D01*
X263078Y110300D01*
X262596Y111021D01*
X261875Y111503D01*
X261524Y111573D01*
D02*
G37*
G36*
X224500Y112024D02*
X221441D01*
Y108965D01*
X224500D01*
Y112024D01*
D02*
G37*
G36*
X272990Y108949D02*
X271366D01*
Y107325D01*
X271717Y107394D01*
X272439Y107876D01*
X272921Y108598D01*
X272990Y108949D01*
D02*
G37*
G36*
X280209D02*
X278584D01*
X278654Y108598D01*
X279136Y107876D01*
X279858Y107394D01*
X280209Y107325D01*
Y108949D01*
D02*
G37*
G36*
X282833D02*
X281209D01*
Y107325D01*
X281560Y107394D01*
X282281Y107876D01*
X282763Y108598D01*
X282833Y108949D01*
D02*
G37*
G36*
X215567Y125409D02*
X210736D01*
Y120972D01*
X215567D01*
Y125409D01*
D02*
G37*
G36*
X107431Y129790D02*
Y128165D01*
X109055D01*
X108985Y128516D01*
X108503Y129238D01*
X107782Y129720D01*
X107431Y129790D01*
D02*
G37*
G36*
X116273D02*
X115922Y129720D01*
X115201Y129238D01*
X114719Y128516D01*
X114649Y128165D01*
X116273D01*
Y129790D01*
D02*
G37*
G36*
X117273D02*
Y128165D01*
X118898D01*
X118828Y128516D01*
X118346Y129238D01*
X117624Y129720D01*
X117273Y129790D01*
D02*
G37*
G36*
X106431D02*
X106080Y129720D01*
X105358Y129238D01*
X104876Y128516D01*
X104806Y128165D01*
X106431D01*
Y129790D01*
D02*
G37*
G36*
X276272Y131709D02*
X271441D01*
Y127272D01*
X276272D01*
Y131709D01*
D02*
G37*
G36*
X282102D02*
X277272D01*
Y127272D01*
X282102D01*
Y131709D01*
D02*
G37*
G36*
X223713Y130602D02*
X221146D01*
Y128134D01*
X223713D01*
Y130602D01*
D02*
G37*
G36*
X199622Y136236D02*
X196169D01*
Y131799D01*
X199622D01*
Y136236D01*
D02*
G37*
G36*
X123141Y138968D02*
X110914D01*
Y133631D01*
X123141D01*
Y138968D01*
D02*
G37*
G36*
X149894Y139976D02*
X145457D01*
Y135146D01*
X149894D01*
Y139976D01*
D02*
G37*
G36*
X195169Y136236D02*
X191717D01*
Y131799D01*
X195169D01*
Y136236D01*
D02*
G37*
G36*
X236221Y134154D02*
X235487Y134008D01*
X234864Y133592D01*
X234449Y132970D01*
X234302Y132236D01*
X234449Y131502D01*
X234864Y130880D01*
X235487Y130464D01*
X236221Y130318D01*
X236954Y130464D01*
X237575Y130879D01*
X238765D01*
X238786Y130849D01*
X239408Y130433D01*
X240142Y130287D01*
X245260D01*
X245994Y130433D01*
X246616Y130849D01*
X247032Y131471D01*
X247178Y132205D01*
X247032Y132939D01*
X246616Y133561D01*
X245994Y133977D01*
X245260Y134123D01*
X240142D01*
X239408Y133977D01*
X238786Y133561D01*
X238765Y133531D01*
X237618D01*
X237577Y133592D01*
X236954Y134008D01*
X236221Y134154D01*
D02*
G37*
G36*
X263764Y134123D02*
X258646D01*
X257912Y133977D01*
X257290Y133561D01*
X256874Y132939D01*
X256728Y132205D01*
X256874Y131471D01*
X257290Y130849D01*
X257912Y130433D01*
X258646Y130287D01*
X263764D01*
X264498Y130433D01*
X265120Y130849D01*
X265536Y131471D01*
X265682Y132205D01*
X265536Y132939D01*
X265120Y133561D01*
X264498Y133977D01*
X263764Y134123D01*
D02*
G37*
G36*
X223713Y134071D02*
X221146D01*
Y131602D01*
X223713D01*
Y134071D01*
D02*
G37*
G36*
X234146Y125353D02*
X233795Y125283D01*
X233073Y124801D01*
X232591Y124079D01*
X232521Y123728D01*
X234146D01*
Y125353D01*
D02*
G37*
G36*
X235146D02*
Y123728D01*
X236770D01*
X236700Y124079D01*
X236218Y124801D01*
X235497Y125283D01*
X235146Y125353D01*
D02*
G37*
G36*
X227279Y134071D02*
X227095D01*
X226975Y134071D01*
X224713D01*
Y131102D01*
Y128134D01*
X226975D01*
X227095Y128134D01*
X227279D01*
X227279D01*
X227655Y128434D01*
X227780D01*
X228793D01*
Y127517D01*
X222882Y121607D01*
X222594Y121177D01*
X222493Y120669D01*
Y119991D01*
X221741D01*
Y113473D01*
X228134D01*
Y113173D01*
X231193D01*
Y116732D01*
Y120291D01*
X228134D01*
Y119991D01*
X225723D01*
X225515Y120491D01*
X230903Y125879D01*
X234230D01*
X234231Y125867D01*
X235060D01*
X235062Y125879D01*
X238765D01*
X238786Y125848D01*
X239408Y125433D01*
X240142Y125287D01*
X245260D01*
X245994Y125433D01*
X246616Y125848D01*
X247032Y126471D01*
X247178Y127205D01*
X247032Y127939D01*
X246616Y128561D01*
X245994Y128977D01*
X245260Y129123D01*
X240142D01*
X239408Y128977D01*
X238786Y128561D01*
X238765Y128530D01*
X232885D01*
Y133771D01*
X227780D01*
X227655D01*
X227279Y134071D01*
X227279D01*
D02*
G37*
G36*
X282102Y126272D02*
X277272D01*
Y121835D01*
X282102D01*
Y126272D01*
D02*
G37*
G36*
X234146Y122728D02*
X232521D01*
X232591Y122377D01*
X233073Y121656D01*
X233795Y121174D01*
X234146Y121104D01*
Y122728D01*
D02*
G37*
G36*
X236770D02*
X235146D01*
Y121104D01*
X235497Y121174D01*
X236218Y121656D01*
X236700Y122377D01*
X236770Y122728D01*
D02*
G37*
G36*
X276272Y126272D02*
X271441D01*
Y121835D01*
X276272D01*
Y126272D01*
D02*
G37*
G36*
X118898Y127165D02*
X117273D01*
Y125541D01*
X117624Y125611D01*
X118346Y126093D01*
X118828Y126814D01*
X118898Y127165D01*
D02*
G37*
G36*
X195169Y130799D02*
X191717D01*
Y126362D01*
X195169D01*
Y130799D01*
D02*
G37*
G36*
X199622D02*
X196169D01*
Y126362D01*
X199622D01*
Y130799D01*
D02*
G37*
G36*
X116273Y127165D02*
X114649D01*
X114719Y126814D01*
X115201Y126093D01*
X115922Y125611D01*
X116273Y125541D01*
Y127165D01*
D02*
G37*
G36*
X263764Y129123D02*
X258646D01*
X257912Y128977D01*
X257290Y128561D01*
X256874Y127939D01*
X256728Y127205D01*
X256874Y126471D01*
X257290Y125848D01*
X257912Y125433D01*
X258646Y125287D01*
X263764D01*
X264498Y125433D01*
X265120Y125848D01*
X265536Y126471D01*
X265682Y127205D01*
X265536Y127939D01*
X265120Y128561D01*
X264498Y128977D01*
X263764Y129123D01*
D02*
G37*
G36*
X106431Y127165D02*
X104806D01*
X104876Y126814D01*
X105358Y126093D01*
X106080Y125611D01*
X106431Y125541D01*
Y127165D01*
D02*
G37*
G36*
X109055D02*
X107431D01*
Y125541D01*
X107782Y125611D01*
X108503Y126093D01*
X108985Y126814D01*
X109055Y127165D01*
D02*
G37*
G36*
X185171Y205906D02*
X183546D01*
X183616Y205555D01*
X184098Y204833D01*
X184820Y204351D01*
X185171Y204281D01*
Y205906D01*
D02*
G37*
G36*
X187795D02*
X186171D01*
Y204281D01*
X186522Y204351D01*
X187243Y204833D01*
X187725Y205555D01*
X187795Y205906D01*
D02*
G37*
G36*
X254068D02*
X252444D01*
X252514Y205555D01*
X252996Y204833D01*
X253717Y204351D01*
X254068Y204281D01*
Y205906D01*
D02*
G37*
G36*
X177953D02*
X176328D01*
Y204281D01*
X176679Y204351D01*
X177401Y204833D01*
X177883Y205555D01*
X177953Y205906D01*
D02*
G37*
G36*
X165486D02*
X163862D01*
X163931Y205555D01*
X164413Y204833D01*
X165135Y204351D01*
X165486Y204281D01*
Y205906D01*
D02*
G37*
G36*
X168110D02*
X166486D01*
Y204281D01*
X166837Y204351D01*
X167558Y204833D01*
X168040Y205555D01*
X168110Y205906D01*
D02*
G37*
G36*
X175328D02*
X173704D01*
X173774Y205555D01*
X174256Y204833D01*
X174977Y204351D01*
X175328Y204281D01*
Y205906D01*
D02*
G37*
G36*
X132472Y207988D02*
X130102D01*
Y205421D01*
X132472D01*
Y207988D01*
D02*
G37*
G36*
X228456Y210542D02*
X223906D01*
Y205205D01*
X228456D01*
Y206548D01*
X237206D01*
X237227Y206518D01*
X237849Y206102D01*
X238583Y205956D01*
X239317Y206102D01*
X239939Y206518D01*
X240355Y207140D01*
X240429Y207515D01*
X240929Y207465D01*
Y206874D01*
X244480D01*
Y209933D01*
X240929D01*
Y208283D01*
X240429Y208233D01*
X240355Y208608D01*
X239939Y209230D01*
X239317Y209646D01*
X238583Y209792D01*
X237849Y209646D01*
X237227Y209230D01*
X237206Y209200D01*
X228456D01*
Y210542D01*
D02*
G37*
G36*
X249031Y209933D02*
X245480D01*
Y206874D01*
X249031D01*
Y209933D01*
D02*
G37*
G36*
X213692Y213299D02*
X204418D01*
Y207962D01*
X213692D01*
Y209304D01*
X216970D01*
X218001Y208274D01*
Y205205D01*
X222550D01*
Y210542D01*
X219482D01*
X218457Y211567D01*
X218027Y211855D01*
X217520Y211956D01*
X213692D01*
Y213299D01*
D02*
G37*
G36*
X256693Y205906D02*
X255068D01*
Y204281D01*
X255420Y204351D01*
X256141Y204833D01*
X256623Y205555D01*
X256693Y205906D01*
D02*
G37*
G36*
X263911D02*
X262287D01*
X262356Y205555D01*
X262839Y204833D01*
X263560Y204351D01*
X263911Y204281D01*
Y205906D01*
D02*
G37*
G36*
X266535D02*
X264911D01*
Y204281D01*
X265262Y204351D01*
X265984Y204833D01*
X266466Y205555D01*
X266535Y205906D01*
D02*
G37*
G36*
X185171Y198687D02*
X184820Y198617D01*
X184098Y198135D01*
X183616Y197414D01*
X183546Y197063D01*
X185171D01*
Y198687D01*
D02*
G37*
G36*
X186171D02*
Y197063D01*
X187795D01*
X187725Y197414D01*
X187243Y198135D01*
X186522Y198617D01*
X186171Y198687D01*
D02*
G37*
G36*
X195013D02*
X194662Y198617D01*
X193941Y198135D01*
X193459Y197414D01*
X193389Y197063D01*
X195013D01*
Y198687D01*
D02*
G37*
G36*
X176328D02*
Y197063D01*
X177953D01*
X177883Y197414D01*
X177401Y198135D01*
X176679Y198617D01*
X176328Y198687D01*
D02*
G37*
G36*
X165486D02*
X165135Y198617D01*
X164413Y198135D01*
X163931Y197414D01*
X163862Y197063D01*
X165486D01*
Y198687D01*
D02*
G37*
G36*
X166486D02*
Y197063D01*
X168110D01*
X168040Y197414D01*
X167558Y198135D01*
X166837Y198617D01*
X166486Y198687D01*
D02*
G37*
G36*
X175328D02*
X174977Y198617D01*
X174256Y198135D01*
X173774Y197414D01*
X173704Y197063D01*
X175328D01*
Y198687D01*
D02*
G37*
G36*
X132472Y204421D02*
X130102D01*
Y201854D01*
X132472D01*
Y204421D01*
D02*
G37*
G36*
X116273Y205906D02*
X114649D01*
X114719Y205555D01*
X115201Y204833D01*
X115922Y204351D01*
X116273Y204281D01*
Y205906D01*
D02*
G37*
G36*
X118898D02*
X117273D01*
Y204281D01*
X117624Y204351D01*
X118346Y204833D01*
X118828Y205555D01*
X118898Y205906D01*
D02*
G37*
G36*
X154637Y205424D02*
X145363D01*
Y200087D01*
X154637D01*
Y205424D01*
D02*
G37*
G36*
X196013Y198687D02*
Y197063D01*
X197638D01*
X197568Y197414D01*
X197086Y198135D01*
X196364Y198617D01*
X196013Y198687D01*
D02*
G37*
G36*
X263911D02*
X263560Y198617D01*
X262839Y198135D01*
X262356Y197414D01*
X262287Y197063D01*
X263911D01*
Y198687D01*
D02*
G37*
G36*
X264911D02*
Y197063D01*
X266535D01*
X266466Y197414D01*
X265984Y198135D01*
X265262Y198617D01*
X264911Y198687D01*
D02*
G37*
G36*
X275780Y209933D02*
X272228D01*
Y206874D01*
X275780D01*
Y209933D01*
D02*
G37*
G36*
X116232Y216035D02*
X114157D01*
Y213567D01*
X116232D01*
Y216035D01*
D02*
G37*
G36*
X119307D02*
X117232D01*
Y213567D01*
X119307D01*
Y216035D01*
D02*
G37*
G36*
X105012Y217807D02*
X101591D01*
X101661Y217276D01*
X102059Y216314D01*
X102693Y215488D01*
X103518Y214855D01*
X104480Y214456D01*
X105012Y214386D01*
Y217807D01*
D02*
G37*
G36*
X280331Y213992D02*
X276780D01*
Y210933D01*
X280331D01*
Y213992D01*
D02*
G37*
G36*
X244480D02*
X240929D01*
Y210933D01*
X244480D01*
Y213992D01*
D02*
G37*
G36*
X249031D02*
X245480D01*
Y210933D01*
X249031D01*
Y213992D01*
D02*
G37*
G36*
X275780D02*
X272228D01*
Y210933D01*
X275780D01*
Y213992D01*
D02*
G37*
G36*
X105012Y222228D02*
X104480Y222158D01*
X103518Y221760D01*
X102693Y221127D01*
X102059Y220301D01*
X101661Y219339D01*
X101591Y218807D01*
X105012D01*
Y222228D01*
D02*
G37*
G36*
X132571D02*
X132039Y222158D01*
X131077Y221760D01*
X130252Y221127D01*
X129618Y220301D01*
X129220Y219339D01*
X129150Y218807D01*
X132571D01*
Y222228D01*
D02*
G37*
G36*
X133571D02*
Y218807D01*
X136992D01*
X136922Y219339D01*
X136524Y220301D01*
X135890Y221127D01*
X135064Y221760D01*
X134103Y222158D01*
X133571Y222228D01*
D02*
G37*
G36*
X119307Y219504D02*
X117232D01*
Y217035D01*
X119307D01*
Y219504D01*
D02*
G37*
G36*
X132571Y217807D02*
X129150D01*
X129220Y217276D01*
X129618Y216314D01*
X130252Y215488D01*
X131077Y214855D01*
X132039Y214456D01*
X132571Y214386D01*
Y217807D01*
D02*
G37*
G36*
X136992D02*
X133571D01*
Y214386D01*
X134103Y214456D01*
X135064Y214855D01*
X135890Y215488D01*
X136524Y216314D01*
X136922Y217276D01*
X136992Y217807D01*
D02*
G37*
G36*
X116232Y219504D02*
X114157D01*
Y217035D01*
X116232D01*
Y219504D01*
D02*
G37*
G36*
X166486Y208530D02*
Y206906D01*
X168110D01*
X168040Y207257D01*
X167558Y207978D01*
X166837Y208460D01*
X166486Y208530D01*
D02*
G37*
G36*
X175328D02*
X174977Y208460D01*
X174256Y207978D01*
X173774Y207257D01*
X173704Y206906D01*
X175328D01*
Y208530D01*
D02*
G37*
G36*
X176328D02*
Y206906D01*
X177953D01*
X177883Y207257D01*
X177401Y207978D01*
X176679Y208460D01*
X176328Y208530D01*
D02*
G37*
G36*
X165486D02*
X165135Y208460D01*
X164413Y207978D01*
X163931Y207257D01*
X163862Y206906D01*
X165486D01*
Y208530D01*
D02*
G37*
G36*
X280331Y209933D02*
X276780D01*
Y206874D01*
X280331D01*
Y209933D01*
D02*
G37*
G36*
X116273Y208530D02*
X115922Y208460D01*
X115201Y207978D01*
X114719Y207257D01*
X114649Y206906D01*
X116273D01*
Y208530D01*
D02*
G37*
G36*
X117273D02*
Y206906D01*
X118898D01*
X118828Y207257D01*
X118346Y207978D01*
X117624Y208460D01*
X117273Y208530D01*
D02*
G37*
G36*
X263911D02*
X263560Y208460D01*
X262839Y207978D01*
X262356Y207257D01*
X262287Y206906D01*
X263911D01*
Y208530D01*
D02*
G37*
G36*
X264911D02*
Y206906D01*
X266535D01*
X266466Y207257D01*
X265984Y207978D01*
X265262Y208460D01*
X264911Y208530D01*
D02*
G37*
G36*
X154637Y213299D02*
X145363D01*
Y211955D01*
X144390D01*
X143883Y211855D01*
X143453Y211567D01*
X139574Y207688D01*
X136343D01*
X136218Y207688D01*
X135843Y207988D01*
X135806D01*
X135735Y207988D01*
X133472D01*
Y204921D01*
Y201854D01*
X135735D01*
X135806Y201854D01*
X135843D01*
X136218Y202154D01*
X136343Y202154D01*
X137356D01*
Y197649D01*
X136505D01*
Y192312D01*
X141054D01*
Y197649D01*
X140007D01*
Y202154D01*
X141251D01*
Y205617D01*
X144863Y209229D01*
X145363Y209121D01*
Y207962D01*
X154637D01*
Y209304D01*
X156104D01*
X156124Y209274D01*
X156746Y208858D01*
X157480Y208712D01*
X158214Y208858D01*
X158837Y209274D01*
X159252Y209896D01*
X159398Y210630D01*
X159252Y211364D01*
X158837Y211986D01*
X158214Y212402D01*
X157480Y212548D01*
X156746Y212402D01*
X156124Y211986D01*
X156104Y211955D01*
X154637D01*
Y213299D01*
D02*
G37*
G36*
X255068Y208530D02*
Y206906D01*
X256693D01*
X256623Y207257D01*
X256141Y207978D01*
X255420Y208460D01*
X255068Y208530D01*
D02*
G37*
G36*
X185171D02*
X184820Y208460D01*
X184098Y207978D01*
X183616Y207257D01*
X183546Y206906D01*
X185171D01*
Y208530D01*
D02*
G37*
G36*
X186171D02*
Y206906D01*
X187795D01*
X187725Y207257D01*
X187243Y207978D01*
X186522Y208460D01*
X186171Y208530D01*
D02*
G37*
G36*
X254068D02*
X253717Y208460D01*
X252996Y207978D01*
X252514Y207257D01*
X252444Y206906D01*
X254068D01*
Y208530D01*
D02*
G37*
G36*
X195013Y179002D02*
X194662Y178932D01*
X193941Y178450D01*
X193459Y177729D01*
X193389Y177378D01*
X195013D01*
Y179002D01*
D02*
G37*
G36*
X196013D02*
Y177378D01*
X197638D01*
X197568Y177729D01*
X197086Y178450D01*
X196364Y178932D01*
X196013Y179002D01*
D02*
G37*
G36*
X116273Y186221D02*
X114649D01*
X114719Y185870D01*
X115201Y185148D01*
X115922Y184666D01*
X116273Y184596D01*
Y186221D01*
D02*
G37*
G36*
X186171Y179002D02*
Y177378D01*
X187795D01*
X187725Y177729D01*
X187243Y178450D01*
X186522Y178932D01*
X186171Y179002D01*
D02*
G37*
G36*
X175328D02*
X174977Y178932D01*
X174256Y178450D01*
X173774Y177729D01*
X173704Y177378D01*
X175328D01*
Y179002D01*
D02*
G37*
G36*
X176328D02*
Y177378D01*
X177953D01*
X177883Y177729D01*
X177401Y178450D01*
X176679Y178932D01*
X176328Y179002D01*
D02*
G37*
G36*
X185171D02*
X184820Y178932D01*
X184098Y178450D01*
X183616Y177729D01*
X183546Y177378D01*
X185171D01*
Y179002D01*
D02*
G37*
G36*
X177953Y186221D02*
X176328D01*
Y184596D01*
X176679Y184666D01*
X177401Y185148D01*
X177883Y185870D01*
X177953Y186221D01*
D02*
G37*
G36*
X185171D02*
X183546D01*
X183616Y185870D01*
X184098Y185148D01*
X184820Y184666D01*
X185171Y184596D01*
Y186221D01*
D02*
G37*
G36*
X187795D02*
X186171D01*
Y184596D01*
X186522Y184666D01*
X187243Y185148D01*
X187725Y185870D01*
X187795Y186221D01*
D02*
G37*
G36*
X175328D02*
X173704D01*
X173774Y185870D01*
X174256Y185148D01*
X174977Y184666D01*
X175328Y184596D01*
Y186221D01*
D02*
G37*
G36*
X118898D02*
X117273D01*
Y184596D01*
X117624Y184666D01*
X118346Y185148D01*
X118828Y185870D01*
X118898Y186221D01*
D02*
G37*
G36*
X165486D02*
X163862D01*
X163931Y185870D01*
X164413Y185148D01*
X165135Y184666D01*
X165486Y184596D01*
Y186221D01*
D02*
G37*
G36*
X168110D02*
X166486D01*
Y184596D01*
X166837Y184666D01*
X167558Y185148D01*
X168040Y185870D01*
X168110Y186221D01*
D02*
G37*
G36*
X109055Y176378D02*
X107431D01*
Y174754D01*
X107782Y174823D01*
X108503Y175305D01*
X108985Y176027D01*
X109055Y176378D01*
D02*
G37*
G36*
X175328D02*
X173704D01*
X173774Y176027D01*
X174256Y175305D01*
X174977Y174823D01*
X175328Y174754D01*
Y176378D01*
D02*
G37*
G36*
X177953D02*
X176328D01*
Y174754D01*
X176679Y174823D01*
X177401Y175305D01*
X177883Y176027D01*
X177953Y176378D01*
D02*
G37*
G36*
X106431D02*
X104806D01*
X104876Y176027D01*
X105358Y175305D01*
X106080Y174823D01*
X106431Y174754D01*
Y176378D01*
D02*
G37*
G36*
X185171Y169160D02*
X184820Y169090D01*
X184098Y168608D01*
X183616Y167886D01*
X183546Y167535D01*
X185171D01*
Y169160D01*
D02*
G37*
G36*
X186171D02*
Y167535D01*
X187795D01*
X187725Y167886D01*
X187243Y168608D01*
X186522Y169090D01*
X186171Y169160D01*
D02*
G37*
G36*
X265070Y181409D02*
X260521D01*
Y176072D01*
X264377D01*
X269182Y171266D01*
Y168394D01*
X273731D01*
Y173338D01*
X270860D01*
X265070Y179127D01*
Y181409D01*
D02*
G37*
G36*
X250897Y181606D02*
X245953D01*
Y178734D01*
X243551Y176331D01*
X243523Y176289D01*
X243023Y176441D01*
Y177865D01*
X238080D01*
Y176129D01*
X237204D01*
X237183Y176159D01*
X236561Y176575D01*
X235827Y176721D01*
X235093Y176575D01*
X234471Y176159D01*
X234055Y175537D01*
X233909Y174803D01*
X234055Y174069D01*
X234471Y173447D01*
X235093Y173031D01*
X235827Y172885D01*
X236561Y173031D01*
X237183Y173447D01*
X237204Y173478D01*
X238080D01*
Y173316D01*
X242663D01*
X243023Y173316D01*
X243163Y172874D01*
X243163Y172874D01*
Y166535D01*
X243264Y166028D01*
X243551Y165598D01*
X250643Y158506D01*
Y153928D01*
X250143Y153688D01*
X249710Y153977D01*
X248976Y154123D01*
X248242Y153977D01*
X247620Y153561D01*
X247600Y153531D01*
X246636D01*
X246616Y153561D01*
X245994Y153977D01*
X245260Y154123D01*
X240142D01*
X239408Y153977D01*
X238786Y153561D01*
X238370Y152939D01*
X238224Y152205D01*
X238370Y151471D01*
X238786Y150848D01*
X239408Y150433D01*
X240142Y150287D01*
X245260D01*
X245994Y150433D01*
X246616Y150848D01*
X246636Y150879D01*
X247600D01*
X247620Y150848D01*
X248242Y150433D01*
X248976Y150287D01*
X249710Y150433D01*
X250333Y150848D01*
X250748Y151471D01*
X250801Y151735D01*
X251343Y151900D01*
X256976Y146267D01*
X257036Y146227D01*
X257290Y145849D01*
X257912Y145433D01*
X258646Y145287D01*
X263764D01*
X264498Y145433D01*
X265120Y145849D01*
X265536Y146471D01*
X265682Y147205D01*
X265536Y147939D01*
X265120Y148561D01*
X264498Y148977D01*
X263764Y149123D01*
X258646D01*
X257999Y148994D01*
X253294Y153699D01*
Y159055D01*
X253193Y159562D01*
X252906Y159992D01*
X245814Y167085D01*
Y169133D01*
X245954Y169576D01*
X246314Y169576D01*
X250897D01*
Y170525D01*
X252994D01*
X254615Y168904D01*
Y165835D01*
X259165D01*
Y171172D01*
X256096D01*
X254481Y172788D01*
X254051Y173075D01*
X253543Y173176D01*
X250897D01*
Y174125D01*
X246314D01*
X245954Y174125D01*
X245814Y174567D01*
D01*
Y174845D01*
X248025Y177056D01*
X250897D01*
Y178005D01*
X254615D01*
Y176072D01*
X259165D01*
Y181409D01*
X254615D01*
Y180656D01*
X250897D01*
Y181606D01*
D02*
G37*
G36*
X106431Y179002D02*
X106080Y178932D01*
X105358Y178450D01*
X104876Y177729D01*
X104806Y177378D01*
X106431D01*
Y179002D01*
D02*
G37*
G36*
X107431D02*
Y177378D01*
X109055D01*
X108985Y177729D01*
X108503Y178450D01*
X107782Y178932D01*
X107431Y179002D01*
D02*
G37*
G36*
X197638Y176378D02*
X196013D01*
Y174754D01*
X196364Y174823D01*
X197086Y175305D01*
X197568Y176027D01*
X197638Y176378D01*
D02*
G37*
G36*
X185171D02*
X183546D01*
X183616Y176027D01*
X184098Y175305D01*
X184820Y174823D01*
X185171Y174754D01*
Y176378D01*
D02*
G37*
G36*
X187795D02*
X186171D01*
Y174754D01*
X186522Y174823D01*
X187243Y175305D01*
X187725Y176027D01*
X187795Y176378D01*
D02*
G37*
G36*
X195013D02*
X193389D01*
X193459Y176027D01*
X193941Y175305D01*
X194662Y174823D01*
X195013Y174754D01*
Y176378D01*
D02*
G37*
G36*
Y186221D02*
X193389D01*
X193459Y185870D01*
X193941Y185148D01*
X194662Y184666D01*
X195013Y184596D01*
Y186221D01*
D02*
G37*
G36*
X177953Y196063D02*
X176328D01*
Y194439D01*
X176679Y194508D01*
X177401Y194991D01*
X177883Y195712D01*
X177953Y196063D01*
D02*
G37*
G36*
X185171D02*
X183546D01*
X183616Y195712D01*
X184098Y194991D01*
X184820Y194508D01*
X185171Y194439D01*
Y196063D01*
D02*
G37*
G36*
X187795D02*
X186171D01*
Y194439D01*
X186522Y194508D01*
X187243Y194991D01*
X187725Y195712D01*
X187795Y196063D01*
D02*
G37*
G36*
X175328D02*
X173704D01*
X173774Y195712D01*
X174256Y194991D01*
X174977Y194508D01*
X175328Y194439D01*
Y196063D01*
D02*
G37*
G36*
X266535D02*
X262287D01*
X262356Y195712D01*
X262839Y194991D01*
X263281Y194695D01*
X263129Y194195D01*
X248731D01*
Y195976D01*
X241229D01*
Y194195D01*
X230807D01*
X230241Y194082D01*
X229762Y193762D01*
X226759Y190759D01*
X223906D01*
Y185422D01*
X228456D01*
Y188275D01*
X231419Y191238D01*
X241229D01*
Y189457D01*
X248731D01*
Y191238D01*
X272528D01*
Y189457D01*
X280031D01*
Y195976D01*
X272528D01*
Y194195D01*
X265693D01*
X265541Y194695D01*
X265984Y194991D01*
X266466Y195712D01*
X266535Y196063D01*
D02*
G37*
G36*
X165486D02*
X163862D01*
X163931Y195712D01*
X164413Y194991D01*
X165135Y194508D01*
X165486Y194439D01*
Y196063D01*
D02*
G37*
G36*
X168110D02*
X166486D01*
Y194439D01*
X166837Y194508D01*
X167558Y194991D01*
X168040Y195712D01*
X168110Y196063D01*
D02*
G37*
G36*
X213692Y197550D02*
X204418D01*
Y196011D01*
X202656D01*
X202636Y196041D01*
X202013Y196457D01*
X201279Y196603D01*
X200546Y196457D01*
X199923Y196041D01*
X199508Y195419D01*
X199362Y194685D01*
X199508Y193951D01*
X199923Y193329D01*
X200546Y192913D01*
X201279Y192767D01*
X202013Y192913D01*
X202636Y193329D01*
X202656Y193359D01*
X204418D01*
Y192213D01*
X213692D01*
Y197550D01*
D02*
G37*
G36*
X116528Y199268D02*
X110614D01*
Y196799D01*
X116528D01*
Y199268D01*
D02*
G37*
G36*
X123441D02*
X117528D01*
Y196799D01*
X123441D01*
Y199268D01*
D02*
G37*
G36*
X228456Y200700D02*
X223906D01*
Y195363D01*
X228456D01*
Y196312D01*
X236812D01*
X236833Y196282D01*
X237455Y195866D01*
X238189Y195720D01*
X238923Y195866D01*
X239545Y196282D01*
X239961Y196904D01*
X240107Y197638D01*
X239961Y198372D01*
X239545Y198994D01*
X238923Y199410D01*
X238189Y199556D01*
X237455Y199410D01*
X236833Y198994D01*
X236812Y198964D01*
X228456D01*
Y200700D01*
D02*
G37*
G36*
X195013Y196063D02*
X193389D01*
X193459Y195712D01*
X193941Y194991D01*
X194662Y194508D01*
X195013Y194439D01*
Y196063D01*
D02*
G37*
G36*
X197638D02*
X196013D01*
Y194439D01*
X196364Y194508D01*
X197086Y194991D01*
X197568Y195712D01*
X197638Y196063D01*
D02*
G37*
G36*
X213692Y205424D02*
X204418D01*
Y200087D01*
X213692D01*
Y201430D01*
X215002D01*
X218001Y198431D01*
Y195363D01*
X222550D01*
Y200700D01*
X219482D01*
X216489Y203694D01*
X216059Y203981D01*
X215551Y204082D01*
X213692D01*
Y205424D01*
D02*
G37*
G36*
X166486Y188845D02*
Y187221D01*
X168110D01*
X168040Y187572D01*
X167558Y188293D01*
X166837Y188775D01*
X166486Y188845D01*
D02*
G37*
G36*
X175328D02*
X174977Y188775D01*
X174256Y188293D01*
X173774Y187572D01*
X173704Y187221D01*
X175328D01*
Y188845D01*
D02*
G37*
G36*
X176328D02*
Y187221D01*
X177953D01*
X177883Y187572D01*
X177401Y188293D01*
X176679Y188775D01*
X176328Y188845D01*
D02*
G37*
G36*
X165486D02*
X165135Y188775D01*
X164413Y188293D01*
X163931Y187572D01*
X163862Y187221D01*
X165486D01*
Y188845D01*
D02*
G37*
G36*
X197638Y186221D02*
X196013D01*
Y184596D01*
X196364Y184666D01*
X197086Y185148D01*
X197568Y185870D01*
X197638Y186221D01*
D02*
G37*
G36*
X116273Y188845D02*
X115922Y188775D01*
X115201Y188293D01*
X114719Y187572D01*
X114649Y187221D01*
X116273D01*
Y188845D01*
D02*
G37*
G36*
X117273D02*
Y187221D01*
X118898D01*
X118828Y187572D01*
X118346Y188293D01*
X117624Y188775D01*
X117273Y188845D01*
D02*
G37*
G36*
X213692Y189676D02*
X204418D01*
Y188235D01*
X202951D01*
X202931Y188266D01*
X202309Y188681D01*
X201575Y188827D01*
X200841Y188681D01*
X200219Y188266D01*
X199803Y187643D01*
X199657Y186909D01*
X199803Y186176D01*
X200219Y185553D01*
X200841Y185137D01*
X201575Y184992D01*
X202309Y185137D01*
X202931Y185553D01*
X202951Y185584D01*
X204418D01*
Y184339D01*
X213692D01*
Y189676D01*
D02*
G37*
G36*
X116528Y195799D02*
X110614D01*
Y193331D01*
X116528D01*
Y195799D01*
D02*
G37*
G36*
X123441D02*
X117528D01*
Y193331D01*
X123441D01*
Y195799D01*
D02*
G37*
G36*
X196013Y188845D02*
Y187221D01*
X197638D01*
X197568Y187572D01*
X197086Y188293D01*
X196364Y188775D01*
X196013Y188845D01*
D02*
G37*
G36*
X185171D02*
X184820Y188775D01*
X184098Y188293D01*
X183616Y187572D01*
X183546Y187221D01*
X185171D01*
Y188845D01*
D02*
G37*
G36*
X186171D02*
Y187221D01*
X187795D01*
X187725Y187572D01*
X187243Y188293D01*
X186522Y188775D01*
X186171Y188845D01*
D02*
G37*
G36*
X195013D02*
X194662Y188775D01*
X193941Y188293D01*
X193459Y187572D01*
X193389Y187221D01*
X195013D01*
Y188845D01*
D02*
G37*
%LPD*%
D10*
X132972Y185236D02*
D03*
X138878D02*
D03*
X122638Y216535D02*
D03*
X116732D02*
D03*
X138779Y194980D02*
D03*
X132874D02*
D03*
X220276Y179134D02*
D03*
X226181D02*
D03*
X220276Y207874D02*
D03*
X226181D02*
D03*
X220276Y198031D02*
D03*
X226181D02*
D03*
X220276Y188091D02*
D03*
X226181D02*
D03*
X220276Y168504D02*
D03*
X226181D02*
D03*
X220276Y158661D02*
D03*
X226181D02*
D03*
X256890Y178740D02*
D03*
X262795D02*
D03*
X262795Y168504D02*
D03*
X256890D02*
D03*
X207283Y141732D02*
D03*
X213189D02*
D03*
X207283Y131299D02*
D03*
X213189D02*
D03*
D11*
X244980Y210433D02*
D03*
X276279D02*
D03*
X244980Y192717D02*
D03*
X276279D02*
D03*
D12*
X243898Y109449D02*
D03*
X249803D02*
D03*
X230118Y131102D02*
D03*
X224213D02*
D03*
D13*
X162992Y134646D02*
D03*
X150394D02*
D03*
D14*
X129921Y111221D02*
D03*
Y125787D02*
D03*
D15*
X159252Y114906D02*
D03*
X156693D02*
D03*
X154134D02*
D03*
X151575D02*
D03*
X149016D02*
D03*
D16*
X150197Y104276D02*
D03*
X158071D02*
D03*
D17*
X135827Y155512D02*
D03*
Y143606D02*
D03*
D18*
X132972Y204921D02*
D03*
X138681D02*
D03*
X230020Y143307D02*
D03*
X224311D02*
D03*
X273917Y156693D02*
D03*
X279626D02*
D03*
D19*
X195669Y131299D02*
D03*
X186614D02*
D03*
X177559D02*
D03*
D20*
X186614Y106496D02*
D03*
D21*
X210236Y107874D02*
D03*
Y120472D02*
D03*
X276772Y139370D02*
D03*
Y126772D02*
D03*
D22*
X225000Y108465D02*
D03*
Y116732D02*
D03*
X231693Y108465D02*
D03*
Y116732D02*
D03*
D23*
X261205Y122205D02*
D03*
Y127205D02*
D03*
Y132205D02*
D03*
Y137205D02*
D03*
Y142205D02*
D03*
Y147205D02*
D03*
Y152205D02*
D03*
Y157205D02*
D03*
X242701Y122205D02*
D03*
Y127205D02*
D03*
Y132205D02*
D03*
Y137205D02*
D03*
Y142205D02*
D03*
Y147205D02*
D03*
Y152205D02*
D03*
Y157205D02*
D03*
D24*
X275197Y178740D02*
D03*
X278937Y170866D02*
D03*
X271457D02*
D03*
D25*
X240551Y175591D02*
D03*
X248425Y179331D02*
D03*
Y171850D02*
D03*
D26*
X117028Y136299D02*
D03*
X106201Y166299D02*
D03*
Y186299D02*
D03*
X117028Y156299D02*
D03*
X106201Y146299D02*
D03*
X117028Y176299D02*
D03*
Y196299D02*
D03*
X106201Y206299D02*
D03*
D27*
X150000Y210630D02*
D03*
Y202756D02*
D03*
Y194882D02*
D03*
Y187008D02*
D03*
Y179134D02*
D03*
Y171260D02*
D03*
Y163386D02*
D03*
Y155512D02*
D03*
X209055Y155512D02*
D03*
Y163386D02*
D03*
Y171260D02*
D03*
Y179134D02*
D03*
Y187008D02*
D03*
Y194882D02*
D03*
Y202756D02*
D03*
Y210630D02*
D03*
D28*
X159843Y150394D02*
D03*
X167717D02*
D03*
X175591D02*
D03*
X183465D02*
D03*
X191339D02*
D03*
X199213D02*
D03*
D29*
X222933Y175098D02*
X226181Y178347D01*
X222835Y175197D02*
X226181Y171850D01*
X125886Y201969D02*
X132874Y194980D01*
X115354Y201969D02*
X125886D01*
X110433Y206890D02*
X115354Y201969D01*
X144488Y179134D02*
X150000D01*
X139173Y173819D02*
X144488Y179134D01*
X127362Y173819D02*
X139173D01*
X220276Y183465D02*
X270079D01*
X274803Y178740D01*
X275197D01*
X220276Y183465D02*
Y188091D01*
Y178347D02*
Y183071D01*
X226575Y197638D02*
X238189D01*
X226181Y198031D02*
X226575Y197638D01*
X226181Y207874D02*
X238583D01*
X250748Y147205D02*
X251181Y147638D01*
X242701Y147205D02*
X250748D01*
X242701Y152205D02*
X248976D01*
X220276Y188091D02*
X220276Y188091D01*
X219488Y179134D02*
X220276Y178347D01*
X209055Y179134D02*
X219488D01*
X154331Y155512D02*
X159449Y160630D01*
X150000Y155512D02*
X154331D01*
X123228Y216535D02*
X128347Y211417D01*
X122638Y216535D02*
X123228D01*
X175591Y150394D02*
Y157087D01*
X122638Y216535D02*
Y222639D01*
X128149Y228150D01*
X110433Y206890D02*
Y228150D01*
X131791Y164469D02*
X148917D01*
X125689Y158366D02*
X131791Y164469D01*
X125689Y149311D02*
Y158366D01*
X117028Y156299D02*
X131988Y171260D01*
X150000D01*
X119843Y166299D02*
X127362Y173819D01*
X106201Y166299D02*
X119843D01*
X236252Y132205D02*
X242701D01*
X236221Y132236D02*
X236252Y132205D01*
X151575Y114906D02*
Y120472D01*
X236252Y137205D02*
X242701D01*
X236221Y137173D02*
X236252Y137205D01*
X154134Y114906D02*
X154356Y115128D01*
Y123990D01*
X190157Y160630D02*
X204724Y175197D01*
X179528Y160630D02*
X190157D01*
X204724Y175197D02*
X222835D01*
X218701Y170079D02*
X220276Y168504D01*
X210236Y170079D02*
X218701D01*
X209055Y171260D02*
X210236Y170079D01*
X159449Y160630D02*
X179528D01*
Y145276D02*
Y160630D01*
Y145276D02*
X186614Y138189D01*
X237795Y115551D02*
X243898Y109449D01*
X242701Y120653D02*
Y122205D01*
X226181Y168504D02*
Y171850D01*
X122677Y146299D02*
X125689Y149311D01*
X106201Y146299D02*
X122677D01*
X135827Y155512D02*
Y161516D01*
X148917Y164469D02*
X150000Y163386D01*
X208858Y194685D02*
X209055Y194882D01*
X201279Y194685D02*
X208858D01*
X208957Y186909D02*
X209055Y187008D01*
X201575Y186909D02*
X208957D01*
X147835Y110236D02*
X149016Y111417D01*
Y114906D01*
X209055Y202756D02*
X209055Y202756D01*
X209055Y171260D02*
X209055Y171260D01*
X129921Y110236D02*
X147835D01*
X209055Y210630D02*
X217520D01*
X220276Y207874D01*
X215551Y202756D02*
X220276Y198031D01*
X209055Y202756D02*
X215551D01*
X215551Y163386D02*
X220276Y158661D01*
X209055Y163386D02*
X215551D01*
X135827Y155512D02*
X150000D01*
X117028Y176299D02*
X137913D01*
X148622Y187008D01*
X150000D01*
X132874Y185138D02*
X132874Y185138D01*
X132874Y185138D02*
Y194980D01*
X132874Y179527D02*
Y185138D01*
X138779D02*
X148524Y194882D01*
X150000D01*
X206890Y107874D02*
X210236D01*
X186614Y128150D02*
Y131299D01*
Y138189D01*
Y106496D02*
X208858D01*
X210236Y107874D01*
X207283Y131102D02*
Y141732D01*
X195669Y119488D02*
X207283Y131102D01*
X195276Y119488D02*
X195669D01*
X186614Y128150D02*
X195276Y119488D01*
X206890Y107874D01*
X230512Y108465D02*
X242701Y120653D01*
D30*
X274803Y139370D02*
X276772D01*
X276456Y139686D02*
Y153150D01*
X273917Y155688D02*
X276456Y153150D01*
X273917Y155688D02*
Y156693D01*
X276456Y139686D02*
X276772Y139370D01*
X261205Y157205D02*
X273406D01*
X138681Y195079D02*
Y204921D01*
X144390Y210630D01*
X150000D01*
X269882Y161811D02*
X278937Y170866D01*
X269291Y161811D02*
X269882D01*
X262795Y168307D02*
Y168504D01*
Y168307D02*
X269291Y161811D01*
X253543Y171850D02*
X256890Y168504D01*
X248425Y171850D02*
X253543D01*
X263583Y178740D02*
X271457Y170866D01*
X262795Y178740D02*
X263583D01*
X244488Y166535D02*
Y175394D01*
Y166535D02*
X251969Y159055D01*
X244488Y175394D02*
X248425Y179331D01*
X256693D01*
X269291Y146063D02*
Y150000D01*
X265433Y142205D02*
X269291Y146063D01*
X261205Y142205D02*
X265433D01*
X273406Y157205D02*
X273917Y156693D01*
X251969Y153150D02*
Y159055D01*
Y153150D02*
X257913Y147205D01*
X261205D01*
X235827Y174803D02*
X239764D01*
X240551Y175591D01*
X150000Y210630D02*
X157480D01*
X133071Y127953D02*
X156299D01*
X130905Y125787D02*
X133071Y127953D01*
X129921Y125787D02*
X130905D01*
X156299Y127953D02*
X162992Y134646D01*
X264272Y118209D02*
X267717Y121653D01*
X263779Y118209D02*
X264272D01*
X267717Y121653D02*
Y132283D01*
X256693Y179331D02*
X257283Y179921D01*
X267717Y132283D02*
X274803Y139370D01*
X230118Y127441D02*
X230354Y127205D01*
X230118Y127441D02*
Y131102D01*
X230354Y127205D02*
X242701D01*
X223819Y116732D02*
Y120669D01*
X177559Y127953D02*
Y131299D01*
Y127953D02*
X186614Y118898D01*
X191339D01*
X166339Y131299D02*
X177559D01*
X162992Y134646D02*
X166339Y131299D01*
X183465Y148425D02*
Y150394D01*
Y148425D02*
X190157Y141732D01*
X198819D01*
X223819Y120669D02*
X230354Y127205D01*
X216535Y131102D02*
X219291Y128347D01*
Y113780D02*
Y128347D01*
X213189Y131102D02*
X216535D01*
X213189Y141732D02*
X218504D01*
D31*
X226181Y188091D02*
X230807Y192717D01*
X244980D01*
X276279D01*
X231122Y142205D02*
X242701D01*
X230020Y143307D02*
X231122Y142205D01*
D32*
X264411Y196563D02*
D03*
X254569Y206405D02*
D03*
X264411D02*
D03*
X195513Y196563D02*
D03*
Y186721D02*
D03*
Y176878D02*
D03*
X185671Y167035D02*
D03*
Y176878D02*
D03*
Y186721D02*
D03*
Y196563D02*
D03*
Y206405D02*
D03*
X175828D02*
D03*
Y196563D02*
D03*
Y186721D02*
D03*
Y176878D02*
D03*
X165986Y167035D02*
D03*
Y206405D02*
D03*
Y196563D02*
D03*
Y186721D02*
D03*
X146301Y147350D02*
D03*
X126616Y137508D02*
D03*
X116773Y127665D02*
D03*
X106931D02*
D03*
Y137508D02*
D03*
Y157193D02*
D03*
Y176878D02*
D03*
X116773Y186721D02*
D03*
Y206405D02*
D03*
X234646Y123228D02*
D03*
X280709Y109449D02*
D03*
X261024D02*
D03*
X270866D02*
D03*
X269291Y161811D02*
D03*
Y150000D02*
D03*
X238189Y197638D02*
D03*
X238583Y207874D02*
D03*
X251181Y147638D02*
D03*
X248976Y152205D02*
D03*
X235827Y174803D02*
D03*
X157480Y210630D02*
D03*
X175591Y157087D02*
D03*
X128347Y211417D02*
D03*
X236221Y132236D02*
D03*
Y137173D02*
D03*
X263779Y118209D02*
D03*
X191339Y118898D02*
D03*
X154331Y124409D02*
D03*
X151575Y121260D02*
D03*
X135827Y161516D02*
D03*
X201279Y194685D02*
D03*
X201575Y186909D02*
D03*
X132874Y179527D02*
D03*
X198819Y141732D02*
D03*
X219291Y113780D02*
D03*
X218504Y141732D02*
D03*
D33*
X105512Y218307D02*
D03*
X110433Y228150D02*
D03*
X128149D02*
D03*
X133071Y218307D02*
D03*
D34*
X163976Y114906D02*
D03*
X144291D02*
D03*
D35*
X141535Y104276D02*
D03*
X166732D02*
D03*
M02*
