M48
;Layer_Color=6321
;FILE_FORMAT=2:5
INCH,TZ
;TYPE=PLATED
T1F00S00C0.01181
T3F00S00C0.03346
T4F00S00C0.03937
T5F00S00C0.11811
%
T01
X106931Y127665
X116773
X126616Y137508
X106931
X146301Y147350
X154331Y124409
X151575Y121260
X191339Y118898
X198819Y141732
X218504
X236221Y137173
Y132236
X234646Y123228
X219291Y113780
X261024Y109449
X270866
X280709
X263779Y118209
X269291Y150000
X251181Y147638
X248976Y152205
X269291Y161811
X264411Y196563
Y206405
X254569
X238583Y207874
X238189Y197638
X235827Y174803
X195513Y176878
Y186721
X201575Y186909
X201279Y194685
X195513Y196563
X185671
Y186721
Y176878
Y167035
X165986
X175591Y157087
X175828Y176878
Y186721
X165986
Y196563
X175828
Y206405
X165986
X157480Y210630
X185671Y206405
X128347Y211417
X116773Y206405
Y186721
X106931Y176878
Y157193
X135827Y161516
X132874Y179527
T03
X144291Y114906
X163976
T04
X105512Y218307
X110433Y228150
X128149
X133071Y218307
T05
X111614Y108268
X267126Y234252
M30
